<?xml version="1.0" encoding="UTF-8"?>
<svg width="28px" height="28px" viewBox="0 0 28 28" version="1.1" xmlns="http://www.w3.org/2000/svg" xmlns:xlink="http://www.w3.org/1999/xlink">
    <!-- Generator: Sketch 54 (76480) - https://sketchapp.com -->
    <title>百度百科</title>
    <desc>Created with Sketch.</desc>
    <g id="百度百科" stroke="none" stroke-width="1" fill="none" fill-rule="evenodd">
        <g id="数据百科-2" transform="translate(7.000000, 7.000000)" fill="#666666" fill-rule="nonzero">
            <g id="数据百科">
                <path d="M2.5,1 C1.75,1 1.25,1.4 1.25,2 L1.25,11 C1.25,11.6 1.875,12 2.5,12 L3.125,12 C4.875,12 6.25,12.3 7.5,12.9 C8.75,12.3 10.25,12 11.875,12 L12.375,12 C13.125,12 13.625,11.6 13.625,11 L13.625,2 C13.625,1.4 13.125,1 12.375,1 L11.875,1 C11,1 9.875,1.3 8.625,1.8 C7.875,2.1 7,2.1 6.25,1.8 C5.125,1.2 4.125,1 3.125,1 L2.5,1 Z M2.5,-7.10542736e-15 L3.125,-6.99440506e-15 C4.25,-6.99440506e-15 5.5,0.3 6.875,0.9 C7.25,1 7.75,1 8.125,0.9 C9.5,0.3 10.75,-7.10542736e-15 11.875,-7.10542736e-15 L12.5,-7.10542736e-15 C13.875,-7.10542736e-15 15,0.9 15,2 L15,11 C15,12.1 13.875,13 12.5,13 L11.875,13 C10.375,13 9.125,13.2 8.125,13.7 C7.75,13.9 7.25,13.9 6.75,13.7 C5.875,13.2 4.625,13 3.125,13 L2.5,13 C1.25,13 0,12.2 0,11.1 L0,2 C0,0.9 1.125,-6.99440506e-15 2.5,-7.10542736e-15 Z" id="形状"></path>
                <path d="M7.5,3 C7.875,3 8.125,3.2 8.125,3.5 L8.125,10.5 C8.125,10.8 7.875,11 7.5,11 C7.125,11 6.875,10.8 6.875,10.5 L6.875,3.5 C6.875,3.2 7.125,3 7.5,3 Z" id="路径"></path>
            </g>
        </g>
    </g>
</svg>