<?xml version="1.0" encoding="UTF-8"?>
<svg width="28px" height="28px" viewBox="0 0 28 28" version="1.1" xmlns="http://www.w3.org/2000/svg" xmlns:xlink="http://www.w3.org/1999/xlink">
    <!-- Generator: Sketch 54 (76480) - https://sketchapp.com -->
    <title>首页</title>
    <desc>Created with Sketch.</desc>
    <g id="首页" stroke="none" stroke-width="1" fill="none" fill-rule="evenodd">
        <g id="编组-11" transform="translate(5.000000, 6.000000)">
            <g id="推荐-2" transform="translate(5.000000, 5.000000)" fill="#3E3A39" fill-rule="nonzero">
                <g id="推荐">
                    <path d="M3.82737001,3.30377062 C3.94260951,3.44234988 4.17343603,3.60417002 4.42538061,3.62380963 C4.760121,3.64927421 5.11520257,3.50453542 5.11520257,3.50453542 C5.00262072,5.84786725 4.08199268,5.98022798 3.74768159,5.94824965 C3.41332964,5.91587775 3.08731859,5.79988994 2.83608953,5.13948354 C2.58524891,4.4791165 2.55615793,3.45801435 2.55615793,3.45801435 C2.55615793,3.45801435 2.72313969,3.5616241 3.07445968,3.60784998 C3.42577968,3.65399717 3.82737001,3.30377062 3.82737001,3.30377062 Z" id="路径"></path>
                    <path d="M7.41204,1.81379744 C7.41204,2.22495006 7.06570822,2.55831173 6.63929958,2.55831173 C6.21248209,2.55831173 5.86651827,2.22493038 5.86651827,1.81379744 C5.86651827,1.40396331 6.21248209,1.07024742 6.63929958,1.07024742 C7.06572865,1.0702474 7.41204,1.40396331 7.41204,1.81379744 Z" id="路径"></path>
                    <path d="M12.8495166,7.34398029 C12.6940036,7.10379852 12.4185491,6.9473901 12.128682,6.93572048 L10.7319065,6.91183021 C10.7086828,6.91141696 10.687483,6.90088871 10.6737246,6.88292181 C10.6599662,6.8649746 10.6557753,6.84236346 10.6622354,6.82093306 C10.733358,6.58490354 10.7711374,6.34064823 10.7744901,6.09491698 C10.7766163,5.93661938 10.7639209,5.77859729 10.7356886,5.61217229 C10.7349117,5.60737062 10.73391,5.60254927 10.7327651,5.59751146 L10.7056368,5.48099231 C10.6164626,5.09752798 10.2614219,4.82599762 9.84227071,4.82068431 C9.83816157,4.82064494 9.83413423,4.8206056 9.83002511,4.8206056 C9.34171384,4.8206056 8.94141144,5.18960588 8.93517621,5.64834223 C8.93482868,5.67313773 8.93538064,5.69425325 8.93685257,5.71286956 C8.937241,5.7176909 8.93732277,5.72123312 8.93717966,5.72404721 C8.92045697,6.02580446 8.72589702,6.379219 8.40340225,6.69364952 C8.12056769,6.96941087 7.82180771,7.13308081 7.69413862,7.13308081 C7.69352532,7.13308081 7.69289157,7.13308081 7.69229871,7.13306113 L6.49750412,7.11857742 C6.29621831,7.11607819 6.13066759,7.26796044 6.12809171,7.45717369 L6.08266647,10.577372 C6.08011105,10.7648535 6.24521202,10.9126426 6.46671634,10.9211242 L7.49099246,10.9323019 C7.4953469,10.9323412 7.49970134,10.9327545 7.50376958,10.933522 L7.50599791,10.9339352 C7.53032556,10.938363 7.55514386,10.9391698 7.57953284,10.9362573 C7.58302866,10.9358441 7.5864427,10.9355686 7.58977498,10.935726 L11.5141122,10.9866748 C11.5153797,10.9866945 11.5166881,10.9866945 11.5179556,10.9866945 C11.5232504,10.9866945 11.5285453,10.9865568 11.5337992,10.9862419 C11.683813,10.9773077 11.8291043,10.9344075 11.9541566,10.8621267 C12.0868343,10.7849654 12.200561,10.6739761 12.2583341,10.5653088 C12.2592132,10.5636558 12.2601127,10.5620618 12.2611144,10.5605465 L12.3002022,10.5015884 C12.3069281,10.491434 12.31255,10.4813584 12.3174769,10.4706333 C12.6069964,9.8371281 12.9640815,7.96823644 12.9676386,7.94954142 C12.9690696,7.94202406 12.9701123,7.93450669 12.970746,7.92696965 L12.9764293,7.86023829 C12.9939289,7.67738131 12.9500573,7.49887342 12.8495166,7.34398029 Z M9.5834367,5.68990421 L9.58167857,5.65430496 C9.58466332,5.5291861 9.69546658,5.4289021 9.83051575,5.4289021 C9.83168101,5.4289021 9.83282586,5.42892177 9.83397069,5.42894146 C9.95086611,5.43041738 10.0496691,5.50529585 10.0743239,5.61140483 L10.0985493,5.71345994 C10.0990195,5.71542785 10.0994284,5.71741542 10.0997759,5.71950138 C10.1200353,5.84141258 10.1294802,5.96472098 10.1278242,6.08596308 C10.1244715,6.3335835 10.0768384,6.57673679 9.98621275,6.80875179 L9.83354137,7.2010126 C9.80645384,7.27067613 9.81628714,7.34890002 9.85989293,7.41029838 C9.90349872,7.47167708 9.97562306,7.50890967 10.0528378,7.50989363 L12.0236847,7.53514175 C12.0260766,7.53516142 12.0284684,7.53529917 12.0308603,7.535555 L12.0750998,7.54037635 L12.0803538,7.5407896 C12.1703048,7.5450009 12.2514447,7.58982958 12.2973402,7.66073288 C12.3176814,7.69216019 12.3377568,7.73726438 12.3324006,7.83345517 C12.3322166,7.83670221 12.3317669,7.83992956 12.3311331,7.84307819 C12.2940488,8.03313763 11.9633562,9.70773888 11.7383356,10.2038456 L11.7111867,10.2428099 L11.7066892,10.2500518 C11.6855711,10.2887603 11.6536181,10.3212897 11.6144485,10.3440779 C11.5837425,10.361848 11.5434486,10.37521 11.5119044,10.3780832 C11.5094716,10.3782799 11.5071411,10.3782406 11.5046265,10.3782012 L7.93733341,10.3318376 C7.89652836,10.3313063 7.86377801,10.2989344 7.86433,10.2596748 L7.89838872,7.75983617 C7.89881802,7.72856629 7.92016095,7.70150771 7.95154158,7.69253412 C8.29358026,7.59461158 8.68535775,7.3271154 8.99947073,6.9769479 C9.35596289,6.57957056 9.56338172,6.130654 9.58351849,5.71277117 C9.58384557,5.7051554 9.58380469,5.69750029 9.5834367,5.68990421 Z M7.25088463,7.80928942 L7.21758231,10.2524527 C7.21707122,10.2913777 7.18393246,10.3227459 7.14361805,10.3227262 C7.14333185,10.3227262 7.14308652,10.3227262 7.14282076,10.3227262 L6.80775327,10.3193218 C6.78792317,10.319125 6.76938099,10.3115092 6.75554081,10.2978323 C6.74170063,10.2841948 6.73423878,10.2661689 6.73452498,10.2470803 L6.77103691,7.73248242 L7.17777897,7.73712665 C7.19756819,7.73734312 7.21606949,7.74497856 7.22988921,7.75861608 C7.24370894,7.7722536 7.25115039,7.79024017 7.25088463,7.80928942 Z" id="形状"></path>
                    <path d="M2.11558204,2.0153494 C2.12750055,1.89501254 2.07224201,1.77733233 1.97002497,1.7065274 L0.618224988,0.770261269 C0.459727236,0.660236173 0.238877085,0.695126981 0.124741543,0.847717673 C0.01060598,1.00028869 0.0466886082,1.21288056 0.205206797,1.32290565 L1.0644024,1.91793854 L0.263756721,2.27296675 C0.0864305905,2.35174165 0.00890918535,2.55386431 0.0905805993,2.72440221 C0.150152688,2.84906846 0.278087538,2.92253004 0.411910107,2.92253004 C0.461464926,2.92253004 0.511714832,2.91255281 0.559715958,2.89127985 L1.91151594,2.2919176 C2.02579458,2.24140167 2.10349998,2.13602081 2.11558204,2.0153494 Z" id="路径"></path>
                </g>
            </g>
            <path d="M16,8.5 C16,4.35786438 12.6421356,1 8.5,1 C4.35786438,1 1,4.35786438 1,8.5 C1,12.6421356 4.35786438,16 8.5,16 L8.5,16" id="路径" stroke="#3E3A39" stroke-linecap="round" transform="translate(8.500000, 8.500000) rotate(-5.000000) translate(-8.500000, -8.500000) "></path>
        </g>
    </g>
</svg>