<?xml version="1.0" encoding="UTF-8"?>
<svg width="28px" height="28px" viewBox="0 0 28 28" version="1.1" xmlns="http://www.w3.org/2000/svg" xmlns:xlink="http://www.w3.org/1999/xlink">
    <!-- Generator: Sketch 54 (76480) - https://sketchapp.com -->
    <title>课程</title>
    <desc>Created with Sketch.</desc>
    <g id="课程" stroke="none" stroke-width="1" fill="none" fill-rule="evenodd">
        <g id="模块管理" transform="translate(7.000000, 7.000000)" fill="#3E3A39" fill-rule="nonzero">
            <path d="M13.5000075,0.00993811616 L9.50000748,0.00993811616 C8.67157964,0.00993811616 8.00000748,0.681066047 8.00000748,1.5089443 L8.00000748,5.50629414 C8.00000748,6.3341724 8.67157964,7.00530033 9.50000588,7.00530033 L13.5000016,7.00530033 C14.3284278,7.00530033 15,6.3341724 15,5.50629414 L15,1.5089443 C15,0.681066047 14.3284278,0.00993811616 13.5000075,0.00993811616 L13.5000075,0.00993811616 Z M14.0000011,5.50629414 C14.0000011,5.78225356 13.7761437,6.00596287 13.5000016,6.00596287 L9.50000588,6.00596287 C9.2238638,6.00596287 9.00000641,5.78225356 9.00000641,5.50629414 L9.00000641,1.5089443 C9.00000641,1.23298489 9.2238638,1.00927558 9.50000641,1.00927558 L13.5000064,1.00927558 C13.7761437,1.00927558 14.0000011,1.23298489 14.0000011,1.5089443 L14.0000011,5.50629414 Z M0.500015493,3.00795049 C0.565354052,3.00716102 0.629904198,2.99358051 0.69001529,2.96797699 C0.750562257,2.94258601 0.806355224,2.90710488 0.855015114,2.86304656 C0.996887243,2.71936147 1.03831328,2.50448283 0.960015002,2.31840765 C0.936217833,2.25707265 0.90053538,2.20103732 0.855015114,2.15351697 C0.737721946,2.03127994 0.566454455,1.97673629 0.4000156,2.00861303 C0.368709752,2.01415342 0.338386809,2.02425439 0.310015696,2.03859316 C0.278106528,2.04941765 0.247826619,2.06454759 0.220015792,2.08356334 L0.145015873,2.14352359 C0.0994956065,2.19104394 0.0638131534,2.24707928 0.0400159847,2.30841427 C0.01308249,2.37158255 -0.000534085131,2.4396204 1.60274648e-05,2.50828176 C1.60274648e-05,2.78424118 0.223873413,3.00795049 0.500015493,3.00795049 Z M1.84001406,1.5089443 C1.93803068,1.5081794 2.03366048,1.47864065 2.11501377,1.42400062 C2.64490461,1.0733853 3.28852286,0.937600211 3.91501184,1.04425239 C4.19115392,1.08978569 4.45194778,0.902988416 4.49751122,0.627028997 C4.54307467,0.351069578 4.35615375,0.0904482314 4.08001167,0.0449149272 C3.20910455,-0.0952946014 2.31722662,0.095441026 1.58001434,0.579560468 C1.38554688,0.694849692 1.29270569,0.926214886 1.35358549,1.14383321 C1.41446529,1.36145153 1.61391253,1.51115573 1.84001406,1.5089443 Z M5.40501025,1.13419276 C5.19965397,1.31788374 5.18176315,1.63300085 5.36501029,1.83872567 C5.77515508,2.29786755 6.00127322,2.89214708 6.00000962,3.50761922 L6.00000962,5.50629414 C6.00000962,5.78225356 5.77615223,6.00596287 5.50001015,6.00596287 L3.50001229,6.00596287 C2.44173055,6.00535674 1.49848079,5.33891427 1.1450148,4.342066 C1.04066511,4.10016038 0.766312645,3.98076278 0.518010268,4.06919499 C0.269707891,4.15762719 0.132753855,4.42351047 0.205015808,4.67684405 C0.699959097,6.0713469 2.0194111,7.00375648 3.50001229,7.00530033 L5.50001015,7.00530033 C6.32843639,7.00530033 7.00000855,6.3341724 7.00000855,5.50629414 L7.00000855,3.50761922 C7.00076356,2.64685953 6.6838845,1.81604697 6.1100095,1.17416626 C5.92619693,0.968945815 5.61087124,0.95106683 5.40501025,1.13419276 L5.40501025,1.13419276 Z M13.5000075,8.00463779 L9.50000748,8.00463779 C8.67157964,8.00463779 8.00000748,8.67576572 8.00000748,9.50364398 L8.00000748,13.5009938 C8.00000748,14.3288721 8.67157964,15 9.50000588,15 L13.5000016,15 C14.3284278,15 15,14.3288721 15,13.5009938 L15,9.50364398 C15,8.67576572 14.3284278,8.00463779 13.5000075,8.00463779 L13.5000075,8.00463779 Z M14.0000011,13.5009938 C14.0000011,13.7769532 13.7761437,14.0006625 13.5000016,14.0006625 L9.50000588,14.0006625 C9.2238638,14.0006625 9.00000641,13.7769532 9.00000641,13.5009938 L9.00000641,9.50364398 C9.00000641,9.22768456 9.2238638,9.00397525 9.50000641,9.00397525 L13.5000064,9.00397525 C13.7761437,9.00397525 14.0000011,9.22768456 14.0000011,9.50364398 L14.0000011,13.5009938 Z M5.50001603,8.00463779 L1.50001603,8.00463779 C0.671588185,8.00463779 1.60274819e-05,8.67576572 1.60274819e-05,9.50364398 L1.60274819e-05,13.5009938 C1.60274819e-05,14.3288721 0.671588185,15 1.50001442,15 L5.50001015,15 C6.32843639,15 7.00000855,14.3288721 7.00000855,13.5009938 L7.00000855,9.50364398 C7.00000855,8.67576572 6.32843639,8.00463779 5.50001603,8.00463779 L5.50001603,8.00463779 Z M6.00000962,13.5009938 C6.00000962,13.7769532 5.77615223,14.0006625 5.50001015,14.0006625 L1.50001442,14.0006625 C1.22387234,14.0006625 1.00001496,13.7769532 1.00001496,13.5009938 L1.00001496,9.50364398 C1.00001496,9.22768456 1.22387234,9.00397525 1.50001496,9.00397525 L5.50001496,9.00397525 C5.77615223,9.00397525 6.00000962,9.22768456 6.00000962,9.50364398 L6.00000962,13.5009938 Z" id="形状"></path>
        </g>
    </g>
</svg>