<?xml version="1.0" encoding="UTF-8"?>
<svg width="28px" height="28px" viewBox="0 0 28 28" version="1.1" xmlns="http://www.w3.org/2000/svg" xmlns:xlink="http://www.w3.org/1999/xlink">
    <!-- Generator: Sketch 54 (76480) - https://sketchapp.com -->
    <title>老师</title>
    <desc>Created with Sketch.</desc>
    <g id="老师" stroke="none" stroke-width="1" fill="none" fill-rule="evenodd">
        <g id="师资介绍-2复制-2" transform="translate(4.000000, 5.000000)" fill-rule="nonzero">
            <g id="师资介绍" transform="translate(0.500000, 0.000000)">
                <path d="M8.52353617,2.55223881 C8.52353617,3.33532912 9.1814874,3.97014925 9.99311137,3.97014925 C10.8047353,3.97014925 11.4626866,3.33532912 11.4626866,2.55223881 C11.4626866,1.7691485 10.8047353,1.13432837 9.99311137,1.13432837 C9.1814874,1.13432837 8.52353617,1.7691485 8.52353617,2.55223881 L8.52353617,2.55223881 Z" id="路径"></path>
                <path d="M17.0470723,12.761194 L2.9391504,12.761194 L2.9391504,16.7313433 C2.9391504,17.0321859 3.06301424,17.3207067 3.28349328,17.5334346 C3.50397233,17.7461624 3.8030061,17.8656716 4.11481056,17.8656716 L15.8714122,17.8656716 C16.1832166,17.8656716 16.4822504,17.7461624 16.7027294,17.5334346 C16.9232085,17.3207067 17.0470723,17.0321859 17.0470723,16.7313433 L17.0470723,15.5878301 C17.0470723,15.2631805 17.3102528,15 17.6349024,15 L17.6349024,15 C17.959552,15 18.2227325,15.2631805 18.2227325,15.5878301 L18.2227325,17.2985075 C18.2227325,17.7497713 18.0369367,18.1825526 17.7062182,18.5016444 C17.3754996,18.8207361 16.9269489,19 16.4592423,19 L3.52698048,19 C2.55303172,19 1.76349025,18.2382158 1.76349025,17.2985075 L1.76349025,12.761194 L0.587830077,12.761194 C0.26318049,12.761194 1.04844812e-13,12.507266 1.04805054e-13,12.1940299 C1.04765295e-13,11.8807937 0.26318049,11.6268657 0.587830077,11.6268657 L3.92905625,11.6268657 C3.85952023,11.4452048 3.82293184,11.2533457 3.82089552,11.0597015 C3.82064033,8.62344281 5.3580535,6.43259795 7.70263146,5.52814925 C8.18582779,5.42719403 9.67832837,6.52238806 9.99311137,6.52238806 C10.8222457,6.52238806 11.7824661,5.30638806 12.3353203,5.54828359 C14.6524864,6.46576926 16.1655352,8.64306148 16.1653272,11.0597015 C16.163385,11.2533291 16.1268962,11.4451877 16.0574604,11.6268657 L19.3983927,11.6268657 C19.7230422,11.6268657 19.9862227,11.8807937 19.9862227,12.1940299 C19.9862227,12.507266 19.7230422,12.761194 19.3983927,12.761194 L18.2227325,12.761194 L17.0470723,12.761194 Z M14.9896671,10.6607015 C14.9896671,10.6890597 14.9820253,10.7174179 14.9799678,10.7457761 C14.9294145,8.97991044 13.9544983,7.47607463 12.1830723,6.84 C11.5984753,6.63014925 10.8240092,7.55547762 9.99311137,7.55547762 C9.36677842,7.55547762 8.23608725,6.75123881 7.84488635,6.82525374 C6.16583225,7.44976031 5.04380733,8.99068483 5.00419748,10.7264925 C5.00419748,10.7046567 4.9968496,10.6839552 4.9968496,10.6615522 L4.9968496,10.8884179 C4.9968496,10.8342537 5.00184615,10.7809403 5.00419748,10.7270597 C5.0320762,11.0877892 5.22530095,11.4177099 5.53118713,11.6268657 L14.4550356,11.6268657 C14.7551166,11.4209665 14.9468899,11.0987676 14.9799678,10.7449254 C14.9799678,10.7928507 14.989667,10.8385075 14.9896671,10.8867164 L14.9896671,10.6598508 L14.9896671,10.6607015 Z M12.9322618,9.92537313 L11.7566016,9.92537313 C11.431952,9.92537312 11.1687716,9.67144507 11.1687716,9.35820896 C11.1687716,9.04497284 11.431952,8.79104479 11.7566016,8.79104478 L12.9322618,8.79104478 C13.2569114,8.79104478 13.5200918,9.04497283 13.5200918,9.35820896 C13.5200918,9.67144508 13.2569114,9.92537313 12.9322618,9.92537313 Z M9.99311137,5.10447762 C8.53218821,5.10447762 7.347876,3.96180138 7.347876,2.55223881 C7.347876,1.14267624 8.53218821,-1.5174244e-15 9.99311137,-1.77635684e-15 C11.4540345,-2.03528928e-15 12.6383467,1.14267624 12.6383467,2.55223881 C12.6383467,3.22913463 12.3596531,3.87830656 11.8635752,4.35694418 C11.3674974,4.8355818 10.6946714,5.10447762 9.99311137,5.10447762 Z M9.99311137,1.13432835 C9.1814874,1.13432835 8.52353618,1.76914847 8.52353617,2.55223878 C8.52353617,3.33532909 9.18148739,3.97014922 9.99311135,3.97014923 C10.8047353,3.97014924 11.4626865,3.33532912 11.4626866,2.55223881 C11.4626866,2.17618558 11.3078568,1.8155345 11.032258,1.54962471 C10.7566591,1.28371492 10.3828669,1.13432835 9.99311137,1.13432835 Z" id="形状" fill="#3E3A39"></path>
            </g>
        </g>
    </g>
</svg>