<?xml version="1.0" encoding="UTF-8"?>
<svg width="139px" height="44px" viewBox="0 0 139 44" version="1.1" xmlns="http://www.w3.org/2000/svg" xmlns:xlink="http://www.w3.org/1999/xlink">
    <!-- Generator: Sketch 54 (76480) - https://sketchapp.com -->
    <title>编组 12</title>
    <desc>Created with Sketch.</desc>
    <defs>
        <polygon id="path-1" points="0.000103990467 0.266215322 138.545303 0.266215322 138.545303 42.9183519 0.000103990467 42.9183519"></polygon>
        <path d="M0.432927083,9.39291974 C0.0250972222,12.203118 0.775118056,13.7677304 3.56670139,13.9112685 L3.56670139,13.9112685 C7.14305556,14.0943868 9.49398958,15.5531338 13.5457431,15.3232822 L13.5457431,15.3232822 C16.3991042,15.1611462 19.7095243,13.7190896 20.7298229,10.0510011 L20.7298229,10.0510011 C21.5561007,7.07962058 20.4214167,3.48210895 18.0449028,1.9318027 L18.0449028,1.9318027 C16.1727465,0.711014029 14.1229792,0.17358089 12.1045833,0.17358089 L12.1045833,0.17358089 C6.5243125,0.173104019 1.17619097,4.27848281 0.432927083,9.39291974" id="path-3"></path>
    </defs>
    <g id="页面1" stroke="none" stroke-width="1" fill="none" fill-rule="evenodd">
        <g id="编组-12">
            <g id="编组" transform="translate(0.500000, 0.000000)">
                <g transform="translate(0.000000, 0.210681)">
                    <mask id="mask-2" fill="white">
                        <use xlink:href="#path-1"></use>
                    </mask>
                    <g id="Clip-2"></g>
                    <path d="M3.57925,14.8144613 L16.9102188,14.8144613 L16.9102188,12.6981097 L3.57925,12.6981097 L3.57925,14.8144613 Z M18.0116007,10.9518097 C17.7200868,10.9518097 17.4546354,11.0643511 17.2577188,11.2469925 L3.23175,11.2469925 C3.03483333,11.0643511 2.76986458,10.9522865 2.47835069,10.9522865 C1.87022569,10.9522865 1.37696875,11.4396483 1.37696875,12.0400283 L1.37696875,25.9484355 L0.107628472,28.555487 C-0.153479167,29.0953045 0.0772222222,29.741941 0.623569444,30.0004048 C1.16991667,30.2583918 1.82485764,30.0304477 2.08644792,29.4901533 L3.47210417,26.6451435 C3.54884375,26.4858687 3.58311111,26.3170565 3.57876736,26.1515824 L3.57876736,26.1482443 L3.57925,26.1239239 L3.57925,16.2651016 L17.1911146,16.2651016 C17.3928576,16.4873233 17.6858194,16.6275233 18.0116007,16.6275233 C18.6202083,16.6275233 19.1129826,16.1401615 19.1129826,15.5397815 L19.1129826,12.0400283 C19.1129826,11.4396483 18.6202083,10.9518097 18.0116007,10.9518097 L18.0116007,10.9518097 Z" id="Fill-1" fill="#3E3A39" mask="url(#mask-2)"></path>
                    <path d="M20.7171778,34.679602 C20.7094556,34.6586197 20.6978722,34.6376374 20.6824278,34.6180857 C20.6655354,34.5980571 20.6457472,34.5804129 20.6220979,34.5670605 L20.6216153,34.5670605 C20.6023097,34.5560925 20.5825215,34.5479857 20.5608028,34.5413095 C20.5443931,34.5365408 20.5265354,34.5327258 20.5067472,34.5289109 L20.5052993,34.5289109 C20.4874417,34.5260497 20.469584,34.5231884 20.4517264,34.5208041 L20.4517264,34.5208041 C20.4304903,34.5179429 20.406841,34.5155585 20.3793306,34.5141279 C20.3518201,34.5126973 20.3247924,34.5117435 20.3001778,34.5117435 C20.2774938,34.5117435 20.2519139,34.5126973 20.2248861,34.5141279 C20.1988236,34.5155585 20.1751743,34.5179429 20.1544208,34.5208041 L20.1544208,34.5208041 C20.1365632,34.5231884 20.1187056,34.5260497 20.1013306,34.5289109 L20.1003653,34.5289109 C20.0805771,34.5327258 20.0627194,34.5360639 20.0463097,34.5403558 L20.0438965,34.5413095 C20.0241083,34.5475088 20.0052854,34.5546619 19.9874278,34.5641993 L19.9869451,34.5641993 C19.9628132,34.5765979 19.9410944,34.5928115 19.9232368,34.6123632 C19.9053792,34.6319149 19.8933132,34.6533741 19.8846257,34.6753101 L19.8846257,34.6762639 C19.8754556,34.7001074 19.8715944,34.7239509 19.8715944,34.7473176 L19.8715944,38.0062511 C19.8715944,38.0281872 19.8749729,38.051077 19.8826951,38.073013 L19.8831778,38.073013 C19.8899347,38.0920878 19.8995875,38.1102089 19.9121361,38.1268994 L19.9116535,38.1273763 C19.9280632,38.1507429 19.9502646,38.1707715 19.9782576,38.1865082 C19.9970806,38.1965225 20.017834,38.2051062 20.0410007,38.2117823 C20.0607889,38.2175048 20.0786465,38.2217966 20.0955389,38.2251347 L20.0955389,38.224181 C20.1143618,38.2279959 20.1317368,38.2299034 20.1505597,38.2327646 C20.1722785,38.2356259 20.1964104,38.2375334 20.2224729,38.238964 C20.250466,38.2403946 20.2760458,38.2413483 20.3001778,38.2413483 C20.3247924,38.2413483 20.3518201,38.2403946 20.3793306,38.238964 C20.406841,38.2375334 20.4304903,38.2356259 20.4517264,38.2327646 C20.4715146,38.2299034 20.4898549,38.2270422 20.5067472,38.224181 C20.5270181,38.220366 20.545841,38.216551 20.5617681,38.2113055 C20.5844521,38.2046293 20.6042403,38.1960456 20.6216153,38.1865082 L20.6220979,38.1865082 C20.6457472,38.172679 20.6655354,38.1559885 20.6824278,38.1345293 L20.6824278,38.1350062 C20.6978722,38.1159314 20.7094556,38.0949491 20.7171778,38.0734899 L20.7176604,38.073013 C20.7249,38.0515538 20.7287611,38.028664 20.7287611,38.0062511 L20.7287611,34.7473176 C20.7287611,34.7249047 20.7249,34.7020149 20.7176604,34.6800789 L20.7171778,34.679602 Z" id="Fill-3" fill="#3E3A39" mask="url(#mask-2)"></path>
                    <path d="M25.1683632,28.3750392 L26.5545021,25.5300293 C26.8069222,25.007856 26.5834604,24.3826787 26.0549708,24.1327985 C25.5269639,23.8838721 24.8937417,24.1041863 24.6413215,24.6258827 L23.2556653,27.4713694 C23.0032451,27.9930658 23.2267069,28.61872 23.7551965,28.8681233 C24.2832035,29.1175266 24.9159431,28.8967356 25.1683632,28.3750392" id="Fill-4" fill="#3E3A39" mask="url(#mask-2)"></path>
                    <path d="M27.8966726,37.9255169 C27.8903983,37.9040578 27.8821934,37.8816448 27.8725406,37.8578013 L27.8715753,37.8563707 L26.5076378,34.7033025 L26.5076378,34.7023487 C26.4989503,34.6842276 26.4897802,34.6670603 26.4786795,34.6503698 L26.4786795,34.6503698 C26.4666135,34.6327256 26.4521344,34.6169889 26.4347594,34.6022059 L26.4337941,34.6007753 L26.4333115,34.6002984 C26.4154538,34.5850385 26.3947003,34.5712093 26.3715337,34.5602413 L26.371051,34.5602413 C26.3493323,34.5497501 26.3276135,34.5421202 26.3049295,34.5359209 L26.3049295,34.5363978 C26.2846587,34.5306753 26.2624573,34.5268603 26.238808,34.5235222 C26.2175719,34.520661 26.1939226,34.5182767 26.1678601,34.5168461 L26.1673774,34.5168461 C26.1471066,34.5158923 26.1195962,34.5144617 26.0838809,34.513508 C26.0428566,34.5125542 26.0119677,34.5116005 25.9916969,34.5116005 C25.971426,34.5116005 25.9424677,34.5125542 25.9048219,34.513508 C25.8695892,34.5144617 25.844492,34.5158923 25.8256691,34.5168461 C25.7996066,34.5182767 25.7764399,34.520661 25.7566517,34.5235222 C25.7358983,34.5263835 25.7141795,34.5306753 25.6939087,34.5363978 C25.6702594,34.5430739 25.6490233,34.550227 25.630683,34.5588107 C25.606551,34.5702556 25.5853149,34.5840848 25.5669747,34.6002984 L25.566492,34.6012521 C25.5515302,34.6150814 25.5375337,34.6303413 25.5254677,34.6475086 L25.5249851,34.6479855 C25.5134017,34.6641991 25.5042316,34.6818433 25.4960267,34.7004412 L25.4960267,34.7009181 L24.1335372,37.8535095 L24.1335372,37.8544632 C24.1224365,37.8787836 24.113749,37.9021503 24.1074747,37.9221788 L24.1074747,37.9231326 C24.1002351,37.9503142 24.0958913,37.9751115 24.094926,37.9980013 C24.0934781,38.0318591 24.0987872,38.0633325 24.1108531,38.0919448 L24.1108531,38.0919448 C24.1258149,38.1272332 24.148499,38.1563223 24.1798705,38.1782583 C24.2020719,38.1949488 24.228617,38.2078243 24.2595059,38.2168849 L24.2599885,38.2178386 C24.2836378,38.2245148 24.3092177,38.2297604 24.3372108,38.2330985 C24.3574816,38.2354828 24.3840267,38.2373903 24.4163635,38.2392978 C24.4482177,38.2407284 24.478624,38.2412053 24.5056517,38.2412053 C24.5273705,38.2412053 24.5563288,38.2407284 24.5910788,38.2397746 L24.5915615,38.2397746 C24.6190719,38.238344 24.6441691,38.2369134 24.6644399,38.2350059 C24.6880892,38.2326216 24.7093253,38.2292835 24.7281483,38.2254685 C24.7517976,38.2211767 24.7735163,38.2149774 24.7904087,38.2083012 L24.7928219,38.2073474 C24.8130927,38.1997175 24.831433,38.1897032 24.8483253,38.1792121 C24.8685962,38.1658597 24.8854885,38.1520305 24.8990024,38.1372475 L24.8990024,38.1367706 C24.9101031,38.124372 24.9207212,38.1105427 24.9298913,38.0952829 C24.9376135,38.0828842 24.9443705,38.0681012 24.9511274,38.0523645 L24.9511274,38.0523645 C25.4540372,36.8220384 25.4236309,36.8682949 25.9752872,35.5359185 C26.4984677,36.782935 26.5573497,36.9469785 27.0288878,38.0647631 L27.0308184,38.0700087 L27.0356448,38.0785924 C27.0419191,38.0895604 27.0481934,38.1005284 27.0549503,38.1110196 L27.0549503,38.1114965 C27.0631552,38.1238951 27.0723253,38.13534 27.0819781,38.146308 L27.0853566,38.1496461 C27.0998358,38.1653828 27.1176934,38.1792121 27.1389295,38.1916107 L27.1408601,38.1925645 C27.1587177,38.2021019 27.177058,38.2106855 27.1973288,38.216408 L27.2031205,38.2187923 C27.2214608,38.2230842 27.2407663,38.227376 27.2610372,38.2302372 L27.2620024,38.2302372 C27.2784122,38.2326216 27.298683,38.2345291 27.3223323,38.2364366 C27.3392247,38.2378672 27.3652872,38.238344 27.4000372,38.2397746 C27.4386483,38.2407284 27.4685719,38.2412053 27.4893253,38.2412053 C27.5129747,38.2412053 27.5438635,38.2407284 27.5824747,38.2397746 L27.5829573,38.2397746 C27.6123983,38.238344 27.6384608,38.2369134 27.6606622,38.2350059 L27.6606622,38.2345291 C27.691551,38.2321447 27.7190615,38.227376 27.7407802,38.2211767 L27.7412628,38.220223 C27.773117,38.2111624 27.8001448,38.19781 27.8237941,38.1811196 L27.8242767,38.1811196 C27.8542003,38.1596604 27.877367,38.131525 27.8928115,38.0962366 L27.8937767,38.0962366 C27.9053601,38.0676244 27.9116344,38.0361509 27.9101865,38.0018162 L27.9101865,38.0003856 C27.9092212,37.9760652 27.9043948,37.9507911 27.8966726,37.9255169 Z" id="Fill-5" fill="#3E3A39" mask="url(#mask-2)"></path>
                    <path d="M29.5960441,24.1330369 C29.0680372,23.8836336 28.4348149,24.1039478 28.1823948,24.6261211 L26.7967385,27.471131 C26.5438358,27.9933043 26.7672976,28.6184816 27.2953045,28.8683618 C27.8237941,29.1177651 28.4570163,28.896974 28.7094365,28.3752776 L30.0946101,25.5297909 C30.3475128,25.0080945 30.124051,24.3824403 29.5960441,24.1330369" id="Fill-6" fill="#3E3A39" mask="url(#mask-2)"></path>
                    <path d="M32.2503167,28.3750392 L33.6359729,25.5300293 C33.8883931,25.007856 33.6649313,24.3826787 33.1364417,24.1327985 C32.6089174,23.8838721 31.9756951,24.1041863 31.723275,24.6258827 L30.3376188,27.4713694 C30.084716,27.9930658 30.3081778,28.61872 30.8366674,28.8681233 C31.3646743,29.1175266 31.9978965,28.8967356 32.2503167,28.3750392" id="Fill-7" fill="#3E3A39" mask="url(#mask-2)"></path>
                    <path d="M5.70845972,20.9022865 C6.05258125,21.2980891 6.63802222,21.3677122 7.06515764,21.0811129 L7.07625833,21.0739599 C7.09894236,21.0591769 7.12162639,21.0420096 7.14382778,21.0243653 L9.81957778,18.7988104 C10.1434285,18.5303322 10.1859007,18.0534617 9.914175,17.7334815 C9.64244931,17.4139782 9.15981042,17.3720136 8.83595972,17.6409686 L6.94932431,19.2093959 L6.02458819,18.1474052 C5.65392153,17.7225135 5.00477222,17.6733958 4.57377569,18.0401093 C4.14326181,18.405869 4.09403264,19.0477368 4.46469931,19.4735822 L5.70845972,20.9022865 Z" id="Fill-8" fill="#3E3A39" mask="url(#mask-2)"></path>
                    <path d="M4.44061563,37.8957125 C4.42903229,37.8728227 4.41503576,37.8504098 4.39910868,37.8279969 L3.35853924,36.3396838 L4.3547059,34.9257626 L4.35856701,34.9209939 C4.3744941,34.8957197 4.38752535,34.8728299 4.39717813,34.8518476 C4.41020938,34.8251429 4.41937951,34.798915 4.42324063,34.7745946 L4.42324063,34.7736409 C4.42999757,34.736445 4.42710174,34.7006797 4.41503576,34.6672987 C4.4005566,34.6286722 4.37497674,34.5971987 4.33829618,34.5724015 C4.31464688,34.5566647 4.2876191,34.5437892 4.25673021,34.5356824 C4.23356354,34.5285294 4.2070184,34.5237607 4.17709479,34.5204226 C4.15537604,34.5180382 4.12738299,34.5156539 4.0940809,34.5142233 C4.0593309,34.5127927 4.02795938,34.5118389 3.99996632,34.5118389 C3.98066076,34.5118389 3.95218507,34.5123158 3.91695243,34.5137464 C3.88268507,34.5147001 3.85903576,34.5156539 3.84359132,34.5170845 L3.84262604,34.5170845 C3.82621632,34.5180382 3.80594549,34.5204226 3.78519201,34.5237607 L3.78470938,34.5237607 C3.76347326,34.5270988 3.74513299,34.5309137 3.72872326,34.5356824 L3.72486215,34.5366362 C3.70217813,34.5437892 3.68190729,34.5523729 3.66356701,34.5628641 C3.64426146,34.574309 3.62640382,34.5881382 3.61192465,34.6038749 L3.61144201,34.6038749 C3.59744549,34.6177042 3.58731007,34.6310566 3.57669201,34.6448858 L3.57669201,34.6444089 L3.56848715,34.6544232 L3.56317813,34.66253 L2.8281191,35.73835 L2.08823368,34.6620531 L2.08244201,34.6529926 L2.07423715,34.6439321 L2.05927535,34.6286722 C2.05444896,34.6229498 2.04865729,34.6172273 2.03852188,34.6067362 C2.02162951,34.5881382 2.00184132,34.5733552 1.98012257,34.5614335 L1.97915729,34.5604797 C1.96033438,34.5504654 1.93813299,34.5418818 1.91544896,34.5356824 L1.90772674,34.533775 C1.88842118,34.5294831 1.86911563,34.5256682 1.84981007,34.5232838 C1.83098715,34.5204226 1.81023368,34.5185151 1.78706701,34.5170845 C1.76920938,34.5156539 1.74459479,34.5147001 1.70936215,34.5137464 C1.67171632,34.5123158 1.64227535,34.5118389 1.62248715,34.5118389 C1.59545938,34.5118389 1.56119201,34.5123158 1.51968507,34.5137464 C1.48831354,34.515177 1.46080313,34.5166076 1.43618854,34.5185151 L1.4357059,34.5180382 C1.40481701,34.5204226 1.37634132,34.5256682 1.3512441,34.5328212 C1.31745938,34.5423586 1.28753576,34.5571416 1.2619559,34.5766933 C1.22575799,34.6053055 1.20259132,34.6401171 1.19197326,34.6820817 C1.18280313,34.7183239 1.18473368,34.754566 1.19583438,34.7917619 L1.19679965,34.7931926 C1.20307396,34.8127442 1.2122441,34.8342034 1.22382743,34.8566163 C1.23396285,34.876168 1.24651146,34.8976272 1.26099063,34.9209939 L1.2643691,34.9257626 L2.26487951,36.3496981 L1.21465729,37.8265663 L1.21369201,37.8279969 C1.19583438,37.853271 1.18232049,37.875684 1.17218507,37.8957125 L1.17266771,37.8957125 C1.15818854,37.9224173 1.14853576,37.9472145 1.14322674,37.9696275 C1.13453924,38.0049159 1.13502188,38.0402043 1.14515729,38.0735853 L1.14515729,38.0735853 C1.15577535,38.1117349 1.1774941,38.1441621 1.20886563,38.1708668 L1.20886563,38.17039 C1.23299757,38.1908954 1.26292118,38.2061553 1.2967059,38.2166464 C1.32228576,38.2242764 1.3488309,38.2299988 1.3773066,38.2333369 C1.39854271,38.2357212 1.42605313,38.2376287 1.46080313,38.2390593 C1.4965184,38.24049 1.52982049,38.2414437 1.56022674,38.2414437 C1.58049757,38.2414437 1.6094559,38.2409668 1.6466191,38.2395362 C1.68088646,38.2385825 1.70598368,38.2376287 1.72191076,38.2361981 C1.74411215,38.2347675 1.76390035,38.23286 1.78175799,38.2299988 L1.78224063,38.2299988 C1.8029941,38.2271376 1.82229965,38.2237995 1.83870938,38.2199845 L1.8464316,38.2171233 C1.86621979,38.2114008 1.88456007,38.2042478 1.90096979,38.1966179 L1.90048715,38.1966179 C1.92027535,38.1870804 1.93716771,38.1761124 1.95164688,38.1651444 L1.95599063,38.1618063 C1.96950451,38.1498845 1.98205313,38.1379628 1.99218854,38.126041 C2.00135868,38.1155499 2.01052882,38.1036281 2.01921632,38.0902757 L2.80012604,36.9367258 L3.56462604,38.078354 C3.57234826,38.0931369 3.58200104,38.1069662 3.59310174,38.1207954 C3.60420243,38.1341478 3.61433785,38.1455927 3.62447326,38.1546532 L3.63074757,38.1603757 C3.64667465,38.1737281 3.66404965,38.1846961 3.68335521,38.1937566 C3.69735174,38.2009097 3.7142441,38.2075859 3.73354965,38.2137852 L3.73499757,38.2142621 C3.75430313,38.2204614 3.77553924,38.225707 3.7987059,38.2295219 C3.81945938,38.2323832 3.84117813,38.2347675 3.86289688,38.2361981 C3.8793066,38.2376287 3.9053691,38.2385825 3.94060174,38.2395362 C3.97921285,38.2409668 4.01010174,38.2414437 4.03085521,38.2414437 C4.06126146,38.2414437 4.09552882,38.24049 4.13269201,38.2390593 C4.16744201,38.2376287 4.19688299,38.2357212 4.22004965,38.2333369 C4.24852535,38.2299988 4.27603576,38.2252301 4.30113299,38.218077 L4.30161563,38.2190308 C4.33588299,38.2094934 4.3658066,38.1956641 4.3918691,38.1765893 L4.39138646,38.1765893 C4.42565382,38.151792 4.44978576,38.1207954 4.46329965,38.0850301 L4.46378229,38.0840764 C4.4763309,38.0492649 4.4787441,38.0139764 4.47102188,37.9767805 C4.46619549,37.9505526 4.45557743,37.923371 4.44109826,37.8957125 L4.44061563,37.8957125 Z" id="Fill-9" fill="#3E3A39" mask="url(#mask-2)"></path>
                    <path d="M31.8065785,16.6921869 C31.8065785,17.4570873 32.4957868,18.0779728 33.3457139,18.0779728 C34.195641,18.0779728 34.8848493,17.4570873 34.8848493,16.6921869 C34.8848493,15.9272865 34.195641,15.306401 33.3457139,15.306401 C32.4957868,15.306401 31.8065785,15.9272865 31.8065785,16.6921869" id="Fill-10" fill="#3E3A39" mask="url(#mask-2)"></path>
                    <path d="M8.73508819,34.679602 C8.72784861,34.6586197 8.71578264,34.6376374 8.70082083,34.6180857 L8.70082083,34.6180857 C8.68392847,34.5980571 8.66414028,34.5804129 8.64000833,34.5670605 L8.63952569,34.5670605 C8.62070278,34.5560925 8.60091458,34.5479857 8.57871319,34.5413095 C8.56278611,34.5365408 8.54444583,34.5327258 8.52465764,34.5289109 L8.52369236,34.5289109 C8.50583472,34.5260497 8.48797708,34.5231884 8.46963681,34.5208041 L8.46963681,34.5208041 C8.44888333,34.5179429 8.42475139,34.5155585 8.39772361,34.5141279 C8.36973056,34.5126973 8.34318542,34.5117435 8.31857083,34.5117435 C8.29540417,34.5117435 8.27030694,34.5126973 8.24327917,34.5141279 C8.21721667,34.5155585 8.19356736,34.5179429 8.17233125,34.5208041 L8.17233125,34.5208041 C8.15447361,34.5231884 8.13709861,34.5260497 8.11924097,34.5289109 L8.11924097,34.5289109 C8.09897014,34.5327258 8.0811125,34.5360639 8.06470278,34.5403558 L8.06228958,34.5413095 C8.04250139,34.5475088 8.02367847,34.5546619 8.00533819,34.5641993 L8.00533819,34.5641993 C7.98072361,34.5765979 7.95997014,34.5928115 7.94162986,34.6123632 C7.92377222,34.6319149 7.91122361,34.6533741 7.90301875,34.6753101 L7.90301875,34.6762639 C7.89384861,34.7001074 7.88950486,34.7239509 7.88950486,34.7473176 L7.88950486,38.0062511 C7.88950486,38.0281872 7.89336597,38.051077 7.90060556,38.073013 L7.90157083,38.073013 C7.90832778,38.0920878 7.91798056,38.1102089 7.93052917,38.1268994 L7.92956389,38.1273763 C7.94693889,38.1507429 7.96865764,38.1707715 7.99665069,38.1865082 C8.01450833,38.1965225 8.03477917,38.2051062 8.05649792,38.2113055 C8.07580347,38.2170279 8.09510903,38.2217966 8.11441458,38.2251347 L8.11441458,38.2246578 C8.1332375,38.2279959 8.15012986,38.2299034 8.16895278,38.2327646 C8.19067153,38.2356259 8.21432083,38.2375334 8.24086597,38.238964 C8.26837639,38.2403946 8.29443889,38.2413483 8.31857083,38.2413483 C8.34318542,38.2413483 8.36973056,38.2403946 8.39772361,38.238964 C8.42475139,38.2375334 8.44888333,38.2356259 8.46963681,38.2327646 C8.489425,38.2299034 8.50824792,38.2270422 8.52465764,38.224181 C8.54541111,38.220366 8.56423403,38.216551 8.58016111,38.2113055 C8.60284514,38.2046293 8.62263333,38.1960456 8.63952569,38.1865082 L8.64000833,38.1865082 C8.66414028,38.172679 8.68392847,38.1559885 8.70082083,38.1345293 L8.70082083,38.1350062 C8.71578264,38.1159314 8.72784861,38.0949491 8.73508819,38.0734899 L8.73557083,38.073013 C8.74329306,38.0515538 8.74715417,38.028664 8.74715417,38.0062511 L8.74715417,34.7473176 C8.74715417,34.7249047 8.74329306,34.7020149 8.73557083,34.6800789 L8.73508819,34.679602 Z" id="Fill-11" fill="#3E3A39" mask="url(#mask-2)"></path>
                    <path d="M18.0871819,24.0277916 C18.4925986,24.0277916 18.8212757,23.7030427 18.8212757,23.3024715 C18.8212757,22.9019002 18.4925986,22.5771513 18.0871819,22.5771513 L12.6835569,22.5771513 L12.6835569,18.2257073 C12.6835569,17.6248504 12.1907826,17.1379655 11.5826576,17.1379655 C10.9750153,17.1379655 10.4817583,17.6248504 10.4817583,18.2257073 L10.4817583,22.5771513 L6.73310208,22.5771513 C6.61582083,22.1002807 6.18192847,21.7464428 5.66357431,21.7464428 C5.05593194,21.7464428 4.56315764,22.2333276 4.56315764,22.8337077 L4.56315764,23.7407155 C4.56315764,24.3415724 5.05593194,24.8279804 5.66357431,24.8279804 C6.17034514,24.8279804 6.59748056,24.4889255 6.72489722,24.0277916 L10.4817583,24.0277916 L10.4817583,26.1055167 L5.34599792,26.1055167 C4.94058125,26.1055167 4.61190417,26.4302656 4.61190417,26.8308369 C4.61190417,27.2314081 4.94058125,27.556157 5.34599792,27.556157 L10.4817583,27.556157 L10.4817583,29.3735108 C10.4817583,29.9738908 10.9750153,30.4612526 11.5826576,30.4612526 C12.1907826,30.4612526 12.6835569,29.9738908 12.6835569,29.3735108 L12.6835569,27.556157 L18.0871819,27.556157 C18.4925986,27.556157 18.8212757,27.2314081 18.8212757,26.8308369 C18.8212757,26.4302656 18.4925986,26.1055167 18.0871819,26.1055167 L12.6835569,26.1055167 L12.6835569,24.0277916 L18.0871819,24.0277916 Z" id="Fill-12" fill="#3E3A39" mask="url(#mask-2)"></path>
                    <path d="M16.0069601,34.6370174 L16.0069601,34.6370174 C15.9929635,34.616512 15.973658,34.5983909 15.9514566,34.5836079 C15.9364948,34.5731168 15.9196024,34.5645331 15.9012622,34.5569032 C15.8829219,34.5483195 15.8607205,34.5416433 15.8356233,34.5363978 C15.8143872,34.531629 15.794599,34.5287678 15.7748108,34.5263835 C15.7569531,34.5249529 15.7352344,34.5230454 15.7096545,34.5220916 L15.7091719,34.5220916 C15.6797309,34.520661 15.655599,34.5197073 15.6377413,34.5197073 C15.6160226,34.5197073 15.5899601,34.520661 15.5590712,34.5220916 C15.5315608,34.5230454 15.5088767,34.5249529 15.4919844,34.5263835 C15.4736441,34.5287678 15.4538559,34.531629 15.4326198,34.5363978 C15.4084878,34.5411665 15.3872517,34.5478426 15.3689115,34.5554726 C15.3496059,34.5631025 15.3317483,34.572163 15.3167865,34.5817005 L15.3172691,34.5821773 C15.2945851,34.5969603 15.2762448,34.6131739 15.2622483,34.6308181 L15.2574219,34.6379712 C15.2468038,34.6527542 15.2381163,34.6689678 15.2313594,34.6880426 L15.2308767,34.6899501 C15.2226719,34.7109324 15.2188108,34.7328684 15.2188108,34.7552813 L15.2188108,36.5974324 L15.2192934,36.5974324 L15.2192934,36.8091629 L15.2192934,36.8096398 L15.219776,36.904537 L15.2115712,36.8911847 L15.2120538,36.8911847 C15.1927483,36.8597112 15.1652378,36.816316 15.1304878,36.7619527 C15.098151,36.7114044 15.0716059,36.6694398 15.0465087,36.6312902 L14.9601163,36.5001508 L14.9596337,36.4996739 C14.9263316,36.4491256 14.8944774,36.4009617 14.8693802,36.3637658 L13.8838316,34.8749759 L13.883349,34.8749759 C13.8616302,34.8415949 13.8442552,34.815367 13.8302587,34.7962922 C13.8152969,34.7757868 13.7959913,34.7514664 13.7747552,34.7261922 L13.7733073,34.7238079 C13.7544844,34.7018718 13.7342135,34.6813664 13.7129774,34.6622916 C13.6902934,34.6413093 13.6666441,34.6236651 13.6425122,34.6084052 C13.6188628,34.5940991 13.5923177,34.5812236 13.563842,34.5697787 L13.5633594,34.5693018 C13.5387448,34.5597644 13.511717,34.5521345 13.4817934,34.5459352 L13.4817934,34.5454583 C13.4557309,34.5397358 13.4258073,34.5359209 13.3925052,34.5325828 C13.3577552,34.5297216 13.3244531,34.5278141 13.2940469,34.5278141 L13.037283,34.5278141 C12.9943281,34.5278141 12.9528212,34.5340134 12.9117969,34.546412 L12.9108316,34.546412 C12.8717378,34.5578569 12.8336094,34.575978 12.7978941,34.5988678 L12.7974115,34.5988678 C12.7491476,34.6298644 12.7129497,34.6713521 12.6888177,34.723331 C12.6685469,34.7681569 12.6584115,34.8182283 12.6584115,34.8735452 L12.6584115,38.0061081 C12.6584115,38.0275672 12.6622726,38.0509339 12.6709601,38.0738237 C12.6786823,38.0943291 12.6893003,38.1143577 12.7032969,38.1320019 L12.7032969,38.1320019 C12.7182587,38.1510767 12.7356337,38.1672903 12.7563872,38.1806427 L12.7563872,38.1806427 C12.7756927,38.1935182 12.7974115,38.2035325 12.8196128,38.2106855 L12.8196128,38.2102087 C12.8384358,38.216408 12.8558108,38.2211767 12.8722205,38.2240379 L12.8727031,38.2240379 C12.8939392,38.2283298 12.9093837,38.2307141 12.9233802,38.2326216 L12.9243455,38.2326216 C12.943651,38.2350059 12.9673003,38.2373903 12.9933628,38.2388209 C13.0203906,38.2407284 13.0464531,38.2412053 13.0710677,38.2412053 C13.0951997,38.2412053 13.1212622,38.2407284 13.1482899,38.2392978 C13.1758003,38.2373903 13.1994497,38.2350059 13.2182726,38.2326216 C13.2366128,38.2302372 13.2539878,38.227376 13.2699149,38.2240379 C13.2897031,38.2206998 13.3080434,38.2159311 13.3244531,38.2106855 L13.3244531,38.2102087 C13.3485851,38.2030556 13.3698212,38.1935182 13.3871962,38.1825502 C13.4084323,38.1687209 13.4267726,38.1525073 13.442217,38.1324788 L13.442217,38.1329556 C13.4576615,38.1138808 13.4682795,38.0924216 13.4755191,38.0714393 L13.4760017,38.0719162 C13.483724,38.0485495 13.4871024,38.0261366 13.4871024,38.0061081 L13.4871024,35.9574721 L13.4861372,35.9574721 L13.4856545,35.762432 L13.4856545,35.7614783 L13.4856545,35.747649 C13.5233003,35.8063041 13.5546719,35.8539912 13.5821823,35.8940483 L14.8626233,37.8239435 C14.8872378,37.8616163 14.9099219,37.8949972 14.9306753,37.9231326 C14.9528767,37.954606 14.9745955,37.9822645 14.9948663,38.0051543 L14.9948663,38.0051543 C15.0175503,38.0328128 15.0392691,38.0561795 15.0605052,38.076208 C15.0846372,38.0990978 15.1087691,38.1196033 15.1348316,38.1372475 L15.1367622,38.1386781 C15.1637899,38.1567992 15.1908177,38.172059 15.2163976,38.1835039 L15.2168802,38.1835039 C15.2458385,38.1968563 15.2752795,38.2073474 15.3047205,38.2145005 L15.3085816,38.2149774 C15.3351267,38.2206998 15.3640851,38.2254685 15.3954566,38.2283298 L15.3954566,38.2288066 C15.4258628,38.2321447 15.4572344,38.2330985 15.4866753,38.2330985 L15.6589774,38.2330985 C15.6792483,38.2330985 15.7000017,38.2321447 15.7222031,38.2288066 C15.742474,38.2259454 15.7622622,38.2226073 15.7820503,38.2173617 C15.8037691,38.2116393 15.8259705,38.2040094 15.8476892,38.1944719 C15.8698906,38.1844577 15.8906441,38.1725359 15.909467,38.1587066 L15.909467,38.1587066 C15.9287726,38.1448774 15.9471128,38.1277101 15.9649705,38.1076815 L15.9654531,38.1076815 C15.9808976,38.0905142 15.9944115,38.0709625 16.0069601,38.0495033 L16.0079253,38.0480727 C16.0219219,38.0227985 16.0325399,37.9960938 16.0383316,37.9679584 L16.0383316,37.9674815 C16.0446059,37.9417305 16.0470191,37.9150258 16.0470191,37.8878442 L16.0470191,34.7552813 C16.0470191,34.7323916 16.0426753,34.7090249 16.0344705,34.6861351 C16.0272309,34.6684909 16.0180608,34.6527542 16.0069601,34.6370174" id="Fill-13" fill="#3E3A39" mask="url(#mask-2)"></path>
                    <path d="M17.665066,17.6407779 L15.7779479,19.2096821 L14.8541771,18.1472144 C14.4835104,17.7223227 13.8338785,17.6736819 13.4028819,18.0399185 C12.9723681,18.4056783 12.9231389,19.0475461 13.2938056,19.4733915 L14.5380486,20.9020957 C14.8821701,21.2978983 15.4671285,21.3675214 15.8942639,21.0813991 L15.9053646,21.0737691 C15.9285312,21.0589861 15.9512153,21.0418188 15.9724514,21.0241746 L18.6496493,18.7986196 C18.9730174,18.5306184 19.0154896,18.0532709 18.7432812,17.7332907 C18.4720382,17.4137875 17.9889167,17.3722997 17.665066,17.6407779" id="Fill-14" fill="#3E3A39" mask="url(#mask-2)"></path>
                    <path d="M25.0024802,16.4402562 C25.5227649,16.7478377 26.1970115,16.5804561 26.5078309,16.0663896 L27.802751,13.9276251 L36.502317,13.9276251 L36.502317,19.4197435 C36.502317,20.0206005 36.9950913,20.5074853 37.6032163,20.5074853 C38.211824,20.5074853 38.7045983,20.0206005 38.7045983,19.4197435 L38.7045983,13.202305 C38.7045983,12.601448 38.211824,12.1145632 37.6032163,12.1145632 C37.2774351,12.1145632 36.9844733,12.2547631 36.7827302,12.4769848 L28.6811538,12.4769848 L29.0339628,11.894249 C29.3452649,11.3806594 29.1758587,10.7144712 28.655574,10.4073665 C28.1352892,10.0993081 27.4610427,10.2671666 27.1502233,10.7807562 L24.6236087,14.9528969 C24.3127892,15.4664865 24.4821955,16.1326747 25.0024802,16.4402562" id="Fill-15" fill="#3E3A39" mask="url(#mask-2)"></path>
                    <path d="M70.0877094,37.9000997 L70.0877094,37.9000997 C70.0877094,37.9000997 70.0872267,37.8996229 70.0872267,37.8996229 C70.0795045,37.8824555 70.0679212,37.862427 70.053442,37.8409678 C70.041376,37.8233236 70.0249663,37.8018644 70.0051781,37.7761134 L69.9989038,37.7694372 L68.6412406,36.2615724 L69.8903101,35.014079 L69.8941712,35.0097872 C69.9158899,34.9864205 69.9342302,34.9659151 69.9482267,34.9487477 L69.9487094,34.947794 C69.9646365,34.9282423 69.9776677,34.9096444 69.9878031,34.8920001 L69.9882858,34.8905695 L69.989251,34.8900927 C70.0022823,34.8686335 70.0129003,34.8457437 70.0196573,34.8219002 L70.0191747,34.8219002 C70.0268969,34.7961492 70.030758,34.770875 70.030758,34.7475084 C70.030758,34.7274798 70.0278622,34.7079281 70.0211052,34.6874227 C70.0148309,34.6669172 70.0056608,34.6468887 69.9926295,34.6287676 L69.9926295,34.6287676 C69.9771851,34.6063547 69.9573969,34.5877567 69.9337476,34.5729737 L69.9327823,34.5729737 C69.9154073,34.5620057 69.8965844,34.553422 69.8758309,34.546269 C69.8584559,34.5400697 69.8401156,34.5343472 69.8198448,34.5305322 C69.8010219,34.5267173 69.7817163,34.5233792 69.7624108,34.5209948 L69.7624108,34.5209948 C69.7426226,34.5181336 69.718008,34.5157493 69.6895323,34.5143186 C69.660574,34.5124112 69.6335462,34.5119343 69.608449,34.5119343 C69.5876955,34.5119343 69.5606677,34.5124112 69.5283309,34.5138418 C69.5008205,34.5147955 69.4776538,34.516703 69.4588309,34.5186105 C69.4361469,34.5209948 69.417324,34.5233792 69.4028448,34.5252867 L69.4028448,34.5257635 C69.3883656,34.5281479 69.3700253,34.5319629 69.3507198,34.5362547 L69.3473413,34.5367316 C69.3285184,34.5415003 69.3106608,34.5476996 69.2928031,34.5548526 L69.2918378,34.5548526 C69.2720497,34.5629594 69.2532267,34.5724969 69.236817,34.5834649 L69.2353691,34.5839417 C69.2223378,34.5930023 69.2078587,34.6034934 69.1943448,34.6163689 L69.1938622,34.6163689 C69.1837267,34.6249526 69.174074,34.6349669 69.1649038,34.6459349 L68.0022267,35.865293 L68.0022267,34.7475084 C68.0022267,34.7246186 67.9983656,34.7022056 67.9906434,34.6807465 L67.9901608,34.6807465 C67.9829212,34.6588104 67.9713378,34.638305 67.956376,34.619707 L67.9558934,34.6182764 C67.939001,34.597771 67.9192128,34.5810805 67.8955635,34.5672513 L67.8950809,34.5672513 C67.8757753,34.5562833 67.8555045,34.5481765 67.8342684,34.5415003 C67.8178587,34.5362547 67.7995184,34.5324397 67.7797302,34.5291016 L67.7782823,34.5291016 C67.7609073,34.5257635 67.7430497,34.5233792 67.725192,34.5209948 L67.725192,34.5209948 C67.7039559,34.5181336 67.679824,34.5157493 67.6527962,34.5143186 C67.6243205,34.5124112 67.598258,34.5119343 67.5731608,34.5119343 C67.5495115,34.5119343 67.5224837,34.5124112 67.494008,34.5143186 C67.4689108,34.5157493 67.4452615,34.5181336 67.4235427,34.5209948 C67.3974802,34.5238561 67.3781747,34.5267173 67.3690045,34.5281479 L67.3680392,34.5291016 C67.3477684,34.5324397 67.3294281,34.5362547 67.3130184,34.5415003 C67.290817,34.5481765 67.2705462,34.5562833 67.2522059,34.5662975 C67.2246955,34.5820343 67.2020115,34.601586 67.1846365,34.6259064 L67.1851191,34.6263832 C67.1580913,34.6626254 67.1445774,34.7041131 67.1445774,34.7475084 L67.1445774,38.005965 C67.1445774,38.027901 67.1489212,38.0507908 67.157126,38.0736806 C67.1648483,38.0946629 67.1754663,38.1142146 67.1894628,38.1318588 L67.1894628,38.1318588 C67.2053899,38.1523643 67.2246955,38.1700085 67.2483448,38.1838377 L67.2483448,38.1833609 C67.268133,38.1957595 67.2898517,38.20482 67.313501,38.2119731 L67.313501,38.2114962 C67.3332892,38.2176955 67.3521122,38.2219874 67.3690045,38.2253255 L67.3690045,38.2243717 C67.3873448,38.2277098 67.4052024,38.2300942 67.4235427,38.2324785 C67.4452615,38.2353397 67.4689108,38.2377241 67.494008,38.2386778 C67.5224837,38.2405853 67.5495115,38.2410622 67.5731608,38.2410622 C67.598258,38.2410622 67.6243205,38.2405853 67.6527962,38.2391547 C67.679824,38.2377241 67.7039559,38.2353397 67.725192,38.2324785 C67.7449802,38.2296173 67.7633205,38.2272329 67.7797302,38.2243717 C67.8004837,38.2205568 67.818824,38.2162649 67.8352337,38.2110194 C67.8598483,38.2038663 67.8810844,38.1943289 67.898942,38.1833609 L67.8994247,38.1824071 C67.9225913,38.1685779 67.9418969,38.1514105 67.9568587,38.1318588 L67.9568587,38.1318588 C67.9867823,38.0941861 68.0022267,38.0488834 68.0022267,38.005965 L68.0022267,36.7231832 L69.2165462,38.1027697 L69.2170288,38.1027697 C69.2648101,38.157133 69.323692,38.1957595 69.3951226,38.2157881 L69.3960878,38.2167418 C69.4207024,38.2229411 69.4486955,38.2286636 69.4795844,38.2320017 L69.4805497,38.2320017 C69.504199,38.2348629 69.5346052,38.2372472 69.5708031,38.2386778 L69.5712858,38.2386778 C69.6098969,38.2405853 69.6456122,38.2410622 69.677949,38.2410622 C69.7035288,38.2410622 69.7315219,38.2405853 69.7614455,38.2391547 C69.7889559,38.2377241 69.8140531,38.2353397 69.8367372,38.2324785 L69.8372198,38.2324785 C69.8584559,38.2296173 69.8777615,38.2267561 69.8961017,38.2229411 C69.9168552,38.2191262 69.9356781,38.2138806 69.9530531,38.2081581 L69.9554663,38.2076813 C70.0032476,38.1914677 70.0466851,38.1623786 70.0751608,38.1218446 C70.0867441,38.1046772 70.0968795,38.0851255 70.1036365,38.0636663 C70.1094281,38.0436378 70.1128066,38.0226555 70.1128066,38.0007194 C70.1128066,37.9821215 70.1099108,37.9620929 70.1041191,37.9415875 C70.0997753,37.9282351 70.0944663,37.9144059 70.0877094,37.9000997" id="Fill-16" fill="#3E3A39" mask="url(#mask-2)"></path>
                    <path d="M76.8908424,37.9255169 C76.8845681,37.9040578 76.8763632,37.8816448 76.8662278,37.8578013 L76.8657451,37.8563707 L75.5018076,34.7033025 L75.501325,34.7023487 C75.4931201,34.6842276 75.48395,34.6670603 75.4728493,34.6503698 C75.4607833,34.6327256 75.4463042,34.6169889 75.4289292,34.6022059 L75.4279639,34.6007753 L75.4274813,34.6002984 C75.4096236,34.5850385 75.3893528,34.5712093 75.3657035,34.5602413 L75.3652208,34.5602413 C75.3435021,34.5497501 75.3217833,34.5421202 75.2990993,34.5359209 L75.2990993,34.5363978 C75.2788285,34.5306753 75.2566271,34.5268603 75.2329778,34.5235222 C75.2117417,34.520661 75.1876097,34.5182767 75.1615472,34.5168461 L75.1615472,34.5168461 C75.1407938,34.5158923 75.1132833,34.5144617 75.0775681,34.513508 C75.0370264,34.5125542 75.0061375,34.5116005 74.9858667,34.5116005 C74.9655958,34.5116005 74.9366375,34.5125542 74.8989917,34.513508 C74.8632764,34.5144617 74.8381792,34.5158923 74.8193563,34.5168461 C74.7937764,34.5182767 74.7706097,34.520661 74.7508215,34.5235222 C74.7295854,34.5263835 74.7083493,34.5306753 74.6875958,34.5363978 C74.6639465,34.5430739 74.6427104,34.550227 74.6248528,34.5588107 C74.6007208,34.5702556 74.5794847,34.5840848 74.5611444,34.6002984 L74.5601792,34.6012521 C74.5452174,34.6150814 74.5321861,34.6303413 74.5191549,34.6475086 L74.5186722,34.6479855 C74.5080542,34.6641991 74.4979188,34.6813664 74.4897139,34.7004412 L74.4897139,34.7009181 L73.1272243,37.8535095 L73.1277069,37.8544632 C73.1166063,37.8787836 73.1079188,37.9021503 73.1021271,37.9221788 L73.1021271,37.9231326 C73.0944049,37.9503142 73.0895785,37.9751115 73.0890958,37.9980013 C73.0871653,38.0318591 73.0924743,38.0633325 73.1045403,38.0919448 C73.1195021,38.1272332 73.1426688,38.1563223 73.1735576,38.1782583 L73.1740403,38.1782583 C73.1967243,38.1949488 73.2227868,38.2078243 73.2536757,38.2168849 L73.2536757,38.2178386 C73.277325,38.2245148 73.3033875,38.2297604 73.3313806,38.2330985 C73.3516514,38.2354828 73.3777139,38.2373903 73.4105333,38.2392978 C73.4428701,38.2407284 73.4723111,38.2412053 73.4998215,38.2412053 C73.5215403,38.2412053 73.5504986,38.2407284 73.584766,38.2397746 L73.5857313,38.2397746 C73.6132417,38.238344 73.6378563,38.2369134 73.6586097,38.2350059 C73.6817764,38.2326216 73.7034951,38.2292835 73.7223181,38.2254685 C73.7459674,38.2211767 73.7676861,38.2149774 73.7845785,38.2083012 L73.7869917,38.2073474 C73.8067799,38.1997175 73.8251201,38.1897032 73.8424951,38.1792121 C73.862766,38.1658597 73.8796583,38.1520305 73.8926896,38.1372475 L73.8926896,38.1367706 C73.9033076,38.1248488 73.9134431,38.1114965 73.9230958,38.0962366 L73.9230958,38.0962366 C73.9317833,38.0833611 73.9395056,38.0676244 73.9457799,38.0514108 L73.9457799,38.0514108 C74.3806375,36.9875125 74.4713736,36.7381092 74.9694569,35.5359185 C75.4979465,36.7962874 75.5442799,36.9298112 76.022575,38.0647631 L76.0249882,38.0700087 L76.0293319,38.0785924 C76.0356063,38.0895604 76.0418806,38.1005284 76.0491201,38.1110196 L76.0491201,38.1114965 C76.0568424,38.1238951 76.0660125,38.13534 76.0761479,38.146308 L76.080009,38.1505998 C76.0944882,38.1653828 76.1108979,38.1792121 76.1311688,38.190657 C76.1475785,38.2006713 76.1678493,38.2092549 76.1914986,38.216408 L76.1972903,38.2187923 C76.2156306,38.2230842 76.2344535,38.227376 76.2552069,38.2302372 L76.2556896,38.2302372 C76.2725819,38.2326216 76.2928528,38.2345291 76.3165021,38.2364366 C76.3329118,38.2378672 76.3589743,38.238344 76.3937243,38.2397746 C76.4323354,38.2407284 76.4627417,38.2412053 76.4834951,38.2412053 C76.5066618,38.2412053 76.538516,38.2407284 76.5761618,38.2397746 L76.5771271,38.2397746 C76.6060854,38.238344 76.6321479,38.2369134 76.6543493,38.2350059 L76.6543493,38.2345291 C76.6857208,38.2321447 76.7127486,38.227376 76.7344674,38.2211767 L76.7354326,38.220223 C76.7672868,38.2111624 76.7943146,38.19781 76.8179639,38.1811196 L76.8179639,38.1811196 C76.8478875,38.1596604 76.8710542,38.131525 76.8864986,38.0962366 L76.8869813,38.0962366 C76.8995299,38.0676244 76.9058042,38.0361509 76.9043563,38.0018162 L76.9043563,38.0003856 C76.9029083,37.9760652 76.8985646,37.9507911 76.8908424,37.9255169 Z" id="Fill-17" fill="#3E3A39" mask="url(#mask-2)"></path>
                    <path d="M81.0800031,16.5650532 C81.0495969,16.628477 81.0254649,16.6933314 81.0080899,16.7586627 L77.6373399,16.7586627 L77.6373399,14.1587643 L82.2518503,14.1587643 L81.0800031,16.5650532 Z M85.3252948,16.7586627 L83.4198365,16.7586627 L85.6018469,12.2784636 C85.8629545,11.7386461 85.6317705,11.0910559 85.0854233,10.8330689 C84.539076,10.574605 83.8841351,10.8035029 83.6225448,11.3433204 L82.9584337,12.708124 L77.6373399,12.708124 L77.6373399,11.3547653 C77.6373399,10.7534315 77.144083,10.2665466 76.5354753,10.2665466 C75.9273503,10.2665466 75.4340934,10.7534315 75.4340934,11.3547653 L75.4340934,12.708124 L69.325333,12.708124 C68.9194337,12.708124 68.5912392,13.0328729 68.5912392,13.4334441 C68.5912392,13.8340154 68.9194337,14.1587643 69.325333,14.1587643 L75.4340934,14.1587643 L75.4340934,16.7586627 L68.7046594,16.7586627 C68.2997253,16.7586627 67.9705656,17.0834115 67.9705656,17.4844597 C67.9705656,17.8845541 68.2997253,18.2097798 68.7046594,18.2097798 L71.1641872,18.2097798 L67.6312705,25.4644119 C67.3701628,26.0042294 67.6013469,26.6513428 68.1476941,26.9093298 C68.6940413,27.1673167 69.3489823,26.9393726 69.6105726,26.3990782 L73.4813365,18.4501226 C73.5194649,18.371439 73.5469753,18.2913247 73.564833,18.2097798 L85.3252948,18.2097798 C85.7311941,18.2097798 86.0598712,17.8845541 86.0598712,17.4844597 C86.0598712,17.0834115 85.7311941,16.7586627 85.3252948,16.7586627 L85.3252948,16.7586627 Z" id="Fill-18" fill="#3E3A39" mask="url(#mask-2)"></path>
                    <path d="M60.6904406,11.6123708 C60.4553955,11.0582472 59.8101073,10.7978758 59.2492809,11.0301118 C59.0933885,11.0949662 58.9601802,11.1908172 58.8544823,11.3081274 L50.7533885,11.3081274 C50.6476906,11.1908172 50.5149649,11.0949662 50.3585899,11.0301118 C49.7977635,10.7978758 49.1524753,11.0582472 48.9174302,11.6123708 L45.5452323,19.5546502 C45.3097045,20.1087738 45.5741906,20.7463498 46.1345344,20.9785858 C46.6948781,21.2108217 47.3401663,20.9504504 47.5756941,20.3958499 L50.8185448,12.7587676 L58.789326,12.7587676 L62.0321767,20.3958499 C62.2672219,20.9504504 62.9125101,21.2108217 63.4733365,20.9785858 C64.0341628,20.7463498 64.2981663,20.1087738 64.0631212,19.5546502 L60.6904406,11.6123708 Z" id="Fill-19" fill="#3E3A39" mask="url(#mask-2)"></path>
                    <path d="M84.2640684,19.5762048 L76.244058,19.5762048 C76.150426,19.4736776 76.0360406,19.387364 75.901867,19.3239402 C75.3555198,19.0654764 74.7010615,19.2938974 74.4394712,19.8341918 L72.7869156,23.2271259 C72.525808,23.7669434 72.756992,24.4140568 73.3033392,24.6720438 C73.7623288,24.8890199 74.298058,24.7626492 74.6127385,24.3964126 L81.3050094,24.3964126 L79.1958774,28.727828 C78.9347698,29.2681224 79.1654712,29.9152357 79.712301,30.1736996 C80.2586483,30.4316866 80.9135892,30.2032656 81.1746969,29.6629712 L83.9059503,24.0549732 C84.167058,23.5146789 83.935874,22.8680424 83.3895267,22.6095785 C82.9064052,22.3811575 82.3378566,22.5337561 82.0318635,22.9457723 L75.3584156,22.9457723 L76.2928045,21.0273219 L84.2640684,21.0273219 C84.6699677,21.0273219 84.9981622,20.7020962 84.9981622,20.3015249 C84.9981622,19.9009536 84.6699677,19.5762048 84.2640684,19.5762048" id="Fill-20" fill="#3E3A39" mask="url(#mask-2)"></path>
                    <path d="M83.0284646,36.4042998 C83.0284646,36.4891828 83.0231556,36.5712045 83.0135028,36.650365 C83.00385,36.7304793 82.9884056,36.8077323 82.9686174,36.882601 L82.9686174,36.882601 C82.9502771,36.9536547 82.9251799,37.0208935 82.8938083,37.0833635 L82.8938083,37.0838404 C82.8629194,37.1458335 82.8257563,37.203058 82.783284,37.2555138 L82.7823188,37.2555138 C82.7417771,37.3070158 82.6944785,37.3532722 82.6409056,37.3938062 C82.5849194,37.4362477 82.5221764,37.4734436 82.4536417,37.5049171 C82.3865549,37.5359137 82.3102979,37.5592803 82.2248708,37.5754939 C82.140409,37.5907538 82.0462944,37.5988606 81.9430097,37.5993375 C81.8402076,37.5988606 81.7460931,37.5907538 81.6611486,37.5754939 C81.5757215,37.5592803 81.4999472,37.5359137 81.4328604,37.5049171 C81.3643257,37.4734436 81.3015826,37.4362477 81.2460792,37.3938062 C81.1920236,37.3532722 81.1442424,37.3070158 81.1032181,37.2555138 L81.1027354,37.2555138 C81.0602632,37.203058 81.0231,37.1458335 80.9926938,37.0838404 L80.9926938,37.0833635 C80.9608396,37.0208935 80.936225,36.9536547 80.9169194,36.882601 L80.9169194,36.882601 C80.8976139,36.8077323 80.8826521,36.7304793 80.8729993,36.650365 C80.8628639,36.5712045 80.8575549,36.4891828 80.8575549,36.4042998 L80.8580375,36.3728263 L80.8575549,36.3418298 C80.8575549,36.2569468 80.8628639,36.1749251 80.8729993,36.0962414 C80.8826521,36.0161271 80.8976139,35.9383972 80.9169194,35.8635286 L80.9169194,35.8635286 C80.936225,35.7924748 80.9608396,35.7252361 80.9926938,35.6632429 L80.9926938,35.6622892 C81.0231,35.600296 81.0602632,35.5430715 81.1027354,35.4910926 L81.1032181,35.4901389 C81.1442424,35.4395906 81.1920236,35.3933342 81.2460792,35.3523233 C81.3015826,35.3103587 81.3643257,35.2731628 81.4328604,35.2416893 C81.4999472,35.2106927 81.5757215,35.1873261 81.6611486,35.1711125 C81.7460931,35.1558526 81.8402076,35.147269 81.9430097,35.1467921 C82.0462944,35.147269 82.140409,35.1558526 82.2248708,35.1711125 C82.3102979,35.1873261 82.3865549,35.2106927 82.4536417,35.2416893 C82.5221764,35.2731628 82.5849194,35.3103587 82.6409056,35.3523233 C82.6944785,35.3933342 82.7417771,35.4395906 82.7823188,35.4901389 L82.783284,35.4910926 C82.8257563,35.5430715 82.8629194,35.600296 82.8938083,35.6622892 L82.8938083,35.6632429 C82.9251799,35.7252361 82.9502771,35.7924748 82.9686174,35.8635286 L82.9686174,35.8635286 C82.9884056,35.9383972 83.00385,36.0161271 83.0135028,36.0962414 C83.0231556,36.1749251 83.0284646,36.2569468 83.0284646,36.3418298 L83.0279819,36.3728263 L83.0284646,36.4042998 Z M83.791034,35.5979117 L83.791034,35.5974348 C83.7485618,35.4782171 83.6954715,35.3675832 83.6312806,35.265056 C83.5670896,35.1625288 83.4922806,35.0690622 83.4063708,34.9841792 C83.3204611,34.8992963 83.2239333,34.8244276 83.1172701,34.7590963 C83.0115722,34.6942419 82.8952563,34.6394018 82.7683222,34.5940991 L82.7673569,34.5940991 C82.6418708,34.5492733 82.505284,34.5154154 82.3595271,34.4934794 C82.227284,34.472974 82.088284,34.4620059 81.9430097,34.4600985 C81.7977354,34.4620059 81.6592181,34.472974 81.5264924,34.4934794 C81.3807354,34.5154154 81.2446313,34.5492733 81.1181799,34.5940991 L81.1181799,34.5940991 C80.9917285,34.6394018 80.8744472,34.6942419 80.7682667,34.7590963 C80.6620861,34.8244276 80.5650757,34.8992963 80.4801312,34.9841792 C80.3942215,35.0690622 80.3194125,35.1625288 80.2547389,35.265056 C80.1910306,35.3675832 80.1374576,35.4782171 80.0949854,35.5974348 L80.0949854,35.5979117 C80.0529958,35.7166524 80.0221069,35.8401619 80.0018361,35.9684401 C79.9815653,36.0971951 79.9714299,36.2321495 79.9714299,36.3728263 C79.9714299,36.5135032 79.9815653,36.6489344 80.0018361,36.7776895 C80.0221069,36.9059676 80.0529958,37.029954 80.0949854,37.1486948 L80.0949854,37.1491716 C80.1374576,37.2679124 80.1910306,37.3780695 80.2547389,37.4810736 C80.3194125,37.5836007 80.3942215,37.6770674 80.4801312,37.7619503 C80.5650757,37.8468333 80.6620861,37.9221788 80.7682667,37.9870332 C80.8744472,38.0518876 80.9917285,38.1067278 81.1181799,38.1525073 L81.1181799,38.1525073 C81.2446313,38.1968563 81.3807354,38.2307141 81.5264924,38.2526502 C81.6592181,38.2731556 81.7977354,38.2841236 81.9430097,38.2860311 C82.088284,38.2841236 82.227284,38.2731556 82.3595271,38.2526502 C82.505284,38.2307141 82.6418708,38.1968563 82.7673569,38.1525073 L82.7683222,38.1525073 C82.8952563,38.1067278 83.0115722,38.0518876 83.1172701,37.9870332 C83.2239333,37.9221788 83.3204611,37.8468333 83.4063708,37.7619503 C83.4922806,37.6770674 83.5670896,37.5836007 83.6312806,37.4810736 C83.6954715,37.3780695 83.7485618,37.2679124 83.791034,37.1491716 L83.791034,37.1486948 C83.8330236,37.029954 83.8639125,36.9059676 83.8841833,36.7776895 C83.9049368,36.6489344 83.9150722,36.5135032 83.9150722,36.3728263 C83.9150722,36.2321495 83.9049368,36.0971951 83.8841833,35.9684401 C83.8639125,35.8401619 83.8330236,35.7166524 83.791034,35.5979117 L83.791034,35.5979117 Z" id="Fill-21" fill="#3E3A39" mask="url(#mask-2)"></path>
                    <path d="M39.6065538,29.6347405 L40.9922101,26.7892537 C41.0612274,26.6466694 41.0959774,26.4959783 41.0993559,26.3476716 L41.0993559,26.346241 L41.0993559,26.3195362 L41.0998385,26.3195362 L41.0998385,21.788312 C41.0998385,21.1874551 40.6065816,20.7005702 39.9984566,20.7005702 C39.6726753,20.7005702 39.3792309,20.8407702 39.1779705,21.0629919 L27.2519635,21.0629919 L27.2519635,18.0801664 C27.2519635,17.4788326 26.7587066,16.9919478 26.1510642,16.9919478 C25.5429392,16.9919478 25.0496823,17.4788326 25.0496823,18.0801664 L25.0496823,21.9919357 C25.0496823,22.5927927 25.5429392,23.0796775 26.1510642,23.0796775 C26.5680642,23.0796775 26.930526,22.8507797 27.1177899,22.5136322 L38.8975573,22.5136322 L38.8975573,26.0925458 L37.6277344,28.7000741 C37.3661441,29.2398916 37.5978108,29.8865281 38.144158,30.144992 C38.6905052,30.402979 39.3449635,30.1750348 39.6065538,29.6347405" id="Fill-22" fill="#3E3A39" mask="url(#mask-2)"></path>
                    <path d="M34.0345361,36.4042998 C34.0345361,36.4891828 34.0297097,36.5712045 34.0195743,36.650365 C34.0104042,36.7304793 33.9949597,36.8077323 33.9751715,36.882601 L33.9751715,36.882601 C33.9563486,36.9536547 33.9312514,37.0208935 33.9003625,37.0833635 L33.9003625,37.0838404 C33.8694736,37.1458335 33.8323104,37.203058 33.7898382,37.2555138 L33.7888729,37.2555138 C33.7483313,37.3070158 33.70055,37.3532722 33.6464944,37.3938062 C33.590991,37.4362477 33.5282479,37.4734436 33.4601958,37.5049171 C33.393109,37.5359137 33.3168521,37.5592803 33.2309424,37.5754939 C33.1464806,37.5907538 33.052366,37.5988606 32.9490813,37.5993375 C32.8462792,37.5988606 32.7526472,37.5907538 32.6677028,37.5754939 C32.5822757,37.5592803 32.5060188,37.5359137 32.4394146,37.5049171 C32.3703972,37.4734436 32.3081368,37.4362477 32.2521507,37.3938062 C32.1980951,37.3532722 32.1507965,37.3070158 32.1097722,37.2555138 L32.1088069,37.2555138 C32.0663347,37.203058 32.0296542,37.1458335 31.9987653,37.0838404 L31.9987653,37.0833635 C31.9673938,37.0208935 31.9422965,36.9536547 31.9234736,36.882601 L31.9234736,36.882601 C31.9041681,36.8077323 31.8892063,36.7304793 31.8795535,36.650365 C31.8694181,36.5712045 31.864109,36.4891828 31.864109,36.4042998 L31.8645917,36.3728263 L31.864109,36.3418298 C31.864109,36.2569468 31.8694181,36.1749251 31.8795535,36.0962414 C31.8892063,36.0161271 31.9041681,35.9383972 31.9234736,35.8635286 L31.9234736,35.8635286 C31.9422965,35.7924748 31.9673938,35.7252361 31.9987653,35.6632429 L31.9987653,35.6622892 C32.0296542,35.600296 32.0663347,35.5430715 32.1088069,35.4910926 L32.1097722,35.4901389 C32.1507965,35.4395906 32.1980951,35.3933342 32.2521507,35.3523233 C32.3081368,35.3103587 32.3703972,35.2731628 32.4394146,35.2416893 C32.5060188,35.2106927 32.5822757,35.1873261 32.6677028,35.1711125 C32.7526472,35.1558526 32.8462792,35.147269 32.9490813,35.1467921 C33.052366,35.147269 33.1464806,35.1558526 33.2309424,35.1711125 C33.3168521,35.1873261 33.393109,35.2106927 33.4601958,35.2416893 C33.5282479,35.2731628 33.590991,35.3103587 33.6464944,35.3523233 C33.70055,35.3933342 33.7483313,35.4395906 33.7888729,35.4901389 L33.7898382,35.4910926 C33.8323104,35.5430715 33.8694736,35.600296 33.9003625,35.6622892 L33.9003625,35.6632429 C33.9312514,35.7252361 33.9563486,35.7924748 33.9751715,35.8635286 L33.9751715,35.8635286 C33.9949597,35.9383972 34.0104042,36.0161271 34.0195743,36.0962414 C34.0297097,36.1749251 34.0345361,36.2569468 34.0345361,36.3418298 L34.0345361,36.3728263 L34.0345361,36.4042998 Z M34.7975882,35.5979117 L34.7975882,35.5974348 C34.755116,35.4782171 34.7015431,35.3675832 34.6373521,35.265056 C34.5736438,35.1625288 34.4983521,35.0690622 34.4124424,34.9841792 C34.3265326,34.8992963 34.2304875,34.8244276 34.1238243,34.7590963 C34.0181264,34.6942419 33.9013278,34.6394018 33.7743938,34.5940991 L33.7739111,34.5940991 C33.648425,34.5492733 33.5118382,34.5154154 33.3660813,34.4934794 C33.2338382,34.472974 33.0948382,34.4620059 32.9490813,34.4600985 C32.8042896,34.4620059 32.6652896,34.472974 32.5330465,34.4934794 C32.3868069,34.5154154 32.2507028,34.5492733 32.124734,34.5940991 L32.1242514,34.5940991 C31.9978,34.6394018 31.8810014,34.6942419 31.7748208,34.7590963 C31.6686403,34.8244276 31.5716299,34.8992963 31.4866854,34.9841792 C31.4002931,35.0690622 31.3259667,35.1625288 31.2612931,35.265056 C31.1975847,35.3675832 31.1440118,35.4782171 31.1015396,35.5974348 L31.1015396,35.5979117 C31.05955,35.7166524 31.0281785,35.8401619 31.0083903,35.9684401 C30.9876368,36.0971951 30.9775014,36.2321495 30.9775014,36.3728263 C30.9775014,36.5135032 30.9876368,36.6489344 31.0083903,36.7776895 C31.0281785,36.9059676 31.05955,37.029954 31.1015396,37.1486948 L31.1015396,37.1491716 C31.1440118,37.2679124 31.1975847,37.3780695 31.2612931,37.4810736 C31.3259667,37.5836007 31.4002931,37.6770674 31.4866854,37.7619503 C31.5716299,37.8468333 31.6686403,37.9221788 31.7748208,37.9870332 C31.8810014,38.0518876 31.9978,38.1067278 32.1242514,38.1525073 L32.124734,38.1525073 C32.2507028,38.1968563 32.3868069,38.2307141 32.5330465,38.2526502 C32.6652896,38.2731556 32.8042896,38.2841236 32.9490813,38.2860311 C33.0948382,38.2841236 33.2338382,38.2731556 33.3660813,38.2526502 C33.5118382,38.2307141 33.648425,38.1968563 33.7739111,38.1525073 L33.7743938,38.1525073 C33.9013278,38.1067278 34.0181264,38.0518876 34.1238243,37.9870332 C34.2304875,37.9221788 34.3265326,37.8468333 34.4124424,37.7619503 C34.4983521,37.6770674 34.5736438,37.5836007 34.6373521,37.4810736 C34.7015431,37.3780695 34.755116,37.2679124 34.7975882,37.1491716 L34.7975882,37.1486948 C34.8390951,37.029954 34.8704667,36.9059676 34.8907375,36.7776895 C34.911491,36.6489344 34.9216264,36.5135032 34.9216264,36.3728263 C34.9216264,36.2321495 34.911491,36.0971951 34.8907375,35.9684401 C34.8704667,35.8401619 34.8390951,35.7166524 34.7975882,35.5979117 L34.7975882,35.5979117 Z" id="Fill-23" fill="#3E3A39" mask="url(#mask-2)"></path>
                    <path d="M36.677708,24.1330369 C36.1492184,23.8836336 35.5164788,24.1039478 35.263576,24.6261211 L33.8784024,27.471131 C33.6259823,27.9933043 33.8494441,28.6184816 34.3769684,28.8683618 C34.905458,29.1177651 35.5386802,28.896974 35.7911003,28.3752776 L37.1767566,25.5297909 C37.4291767,25.0080945 37.2057149,24.3824403 36.677708,24.1330369" id="Fill-24" fill="#3E3A39" mask="url(#mask-2)"></path>
                    <path d="M41.839917,34.9634354 L41.839917,34.9634354 C41.8302642,34.9367306 41.817233,34.9105027 41.7988927,34.8852286 C41.782483,34.8628157 41.7622122,34.8408796 41.7375976,34.8203742 C41.7178094,34.8036837 41.6917469,34.7855626 41.6589274,34.7664878 C41.631417,34.7502742 41.5971497,34.7321531 41.5575733,34.7121246 C41.5155837,34.6911423 41.4692503,34.6711137 41.4214691,34.6534695 C41.3722399,34.6353484 41.3196323,34.6177042 41.2626809,34.6014906 C41.2066948,34.5857539 41.1468476,34.570494 41.0836219,34.5561879 C41.0257052,34.5437892 40.9586184,34.5304369 40.8828441,34.5170845 L40.8818788,34.5166076 C40.8085177,34.5051627 40.7327434,34.4956253 40.6545559,34.489426 C40.576851,34.4832267 40.4976983,34.4803655 40.4175802,34.4803655 C40.2602399,34.4803655 40.107726,34.4922872 39.9600385,34.515177 C39.812351,34.5375899 39.6723858,34.5719246 39.5406253,34.6162736 L39.5401427,34.6167504 C39.4064517,34.6630069 39.2824135,34.7183239 39.1685108,34.7822245 L39.1675455,34.7822245 C39.0536427,34.8466021 38.9479448,34.9209939 38.8499691,35.0058768 L38.8494865,35.0054 C38.7529587,35.0898061 38.6665663,35.1832727 38.5912747,35.2857999 C38.5164656,35.3868964 38.451792,35.4980073 38.3991844,35.616748 C38.3456115,35.7359657 38.3060351,35.8618595 38.2799726,35.9944295 C38.2534274,36.1269996 38.2403962,36.265292 38.2403962,36.4088301 C38.2403962,36.5452151 38.2524622,36.6773082 38.2770767,36.8051095 C38.3016913,36.9333877 38.3383719,37.0545128 38.3871184,37.168008 L38.3880837,37.1689618 C38.4368302,37.2834107 38.4976427,37.3902297 38.5685906,37.4889419 C38.6395385,37.5876541 38.7225524,37.6787364 38.8171497,37.7617119 L38.8171497,37.7626656 C38.910299,37.8446874 39.0150316,37.9176486 39.129417,37.9815492 L39.129417,37.9820261 C39.2423545,38.0444961 39.3659101,38.0979056 39.5000837,38.1417777 L39.5005663,38.1417777 C39.6352226,38.1856498 39.7761531,38.2190308 39.9238406,38.24049 C40.0720108,38.2619491 40.2283858,38.2729172 40.3929656,38.2729172 C40.4421948,38.2729172 40.4962503,38.2710097 40.5556149,38.2681484 L40.5565802,38.2681484 C40.6111184,38.2652872 40.6656566,38.2614723 40.7206774,38.2552729 C40.7742503,38.2500274 40.8287885,38.2428743 40.8847747,38.2347675 C40.9436566,38.225707 40.9981948,38.2161696 41.0479066,38.2056784 L41.0479066,38.2052015 C41.1029274,38.1942335 41.1560177,38.1823117 41.2066948,38.1694362 L41.2076601,38.1694362 C41.2573719,38.1565607 41.3090142,38.1417777 41.3630698,38.1246104 C41.4166427,38.1083968 41.4605628,38.0936138 41.4962781,38.0821689 C41.5397156,38.0659553 41.5788094,38.0516492 41.6111462,38.0382968 C41.6536184,38.0211295 41.6898163,38.0011009 41.7207052,37.9782111 C41.7573858,37.9510295 41.7858615,37.9200329 41.8056497,37.8847445 C41.8230247,37.8556554 41.8355733,37.8246588 41.8437781,37.7917547 C41.8510177,37.7598044 41.8553615,37.7269003 41.8553615,37.6935194 L41.8553615,36.5452151 C41.8553615,36.5228021 41.8524656,36.4989586 41.8481219,36.4736845 L41.8481219,36.4736845 C41.822542,36.3382532 41.7110524,36.2371567 41.5643302,36.2152206 L41.5628823,36.2152206 C41.5440594,36.2123594 41.5242712,36.2109288 41.5049656,36.2109288 L41.353417,36.2109288 C41.1608441,36.2109288 40.9977122,36.3511287 40.9977122,36.5437844 L40.9977122,37.4770202 C40.976476,37.485127 40.9547573,37.49228 40.9330385,37.4989562 C40.8799483,37.5161235 40.8239622,37.5304297 40.7641149,37.5423514 L40.7641149,37.5428283 C40.7057156,37.5537963 40.6468337,37.56238 40.5884344,37.5681024 C40.5329309,37.5738249 40.4750142,37.5762092 40.4142017,37.5762092 C40.3152608,37.5762092 40.2216288,37.5700099 40.1352365,37.5566575 C40.0478788,37.5433052 39.9643823,37.5232766 39.8847469,37.4965719 L39.8847469,37.4965719 C39.8060767,37.4698671 39.7331983,37.4374399 39.6670767,37.3992903 L39.6675594,37.3992903 C39.6004726,37.3611406 39.5391774,37.3167916 39.4851219,37.267674 C39.4281705,37.2166488 39.3784587,37.1603781 39.3350212,37.0988618 C39.2920663,37.0378224 39.2544205,36.9696299 39.2225663,36.8942843 L39.221601,36.8942843 C39.1907122,36.8222769 39.1670628,36.7421626 39.1501705,36.6539415 C39.1337608,36.5666742 39.1255559,36.4736845 39.1255559,36.3744954 C39.1255559,36.2857975 39.1332781,36.2004376 39.1477573,36.1193696 C39.1632017,36.036871 39.1849205,35.9591411 39.2133962,35.8866568 L39.2138788,35.8866568 C39.2433198,35.8127418 39.2790351,35.7445494 39.320542,35.6811256 C39.3615663,35.6186555 39.4088649,35.5609542 39.4629205,35.5094522 C39.516976,35.4569964 39.5773059,35.4093093 39.6434274,35.3678216 L39.6434274,35.3673447 C39.7085837,35.3263339 39.7814622,35.2900917 39.8610976,35.259572 C39.9392851,35.230006 40.0232642,35.2071162 40.1140003,35.1918564 C40.2052191,35.1765965 40.3027122,35.1689666 40.4059969,35.1689666 C40.4962503,35.1689666 40.5787816,35.1723047 40.6521427,35.1799346 C40.7259865,35.1875645 40.7935559,35.1985325 40.8543684,35.2137924 L40.8553337,35.2142693 C40.9214552,35.2304829 40.9817851,35.2471733 41.0358406,35.2633869 C41.0908615,35.2805543 41.1405733,35.2986754 41.1854587,35.3167964 C41.2351705,35.3373019 41.2766774,35.3549461 41.3099795,35.3706828 C41.342799,35.3854658 41.3736878,35.4016794 41.4026462,35.417893 L41.4026462,35.417893 C41.4378788,35.4379216 41.469733,35.4531814 41.497726,35.4641495 C41.5387503,35.4803631 41.5763962,35.4889467 41.608733,35.4889467 C41.6275559,35.4889467 41.6473441,35.4860855 41.6676149,35.4808399 C41.6849899,35.477025 41.7033302,35.4698719 41.7211878,35.4612882 L41.730358,35.4574733 C41.7520767,35.4450746 41.7718649,35.4293379 41.7887573,35.4093093 C41.8022712,35.3930957 41.8133719,35.3764053 41.822542,35.3578073 L41.8230247,35.3573304 C41.8312295,35.3415937 41.8379865,35.3249032 41.8437781,35.3067822 L41.8437781,35.3063053 C41.8490872,35.2886611 41.8529483,35.2710169 41.8563267,35.2538495 L41.8563267,35.2519421 C41.8592226,35.2328672 41.8616358,35.2147461 41.862601,35.1985325 C41.8645316,35.178504 41.8650142,35.1594292 41.8650142,35.1413081 C41.8650142,35.108404 41.8630837,35.0774074 41.8597052,35.0487952 C41.8558441,35.0177986 41.8495698,34.9891864 41.839917,34.9634354" id="Fill-25" fill="#3E3A39" mask="url(#mask-2)"></path>
                    <path d="M48.4099837,36.4042998 C48.4099837,36.4891828 48.4051573,36.5712045 48.3955045,36.650365 C48.3853691,36.7304793 48.3704073,36.8077323 48.3506191,36.882601 L48.3501365,36.882601 C48.3317962,36.9536547 48.3071816,37.0208935 48.2758101,37.0833635 L48.2758101,37.0838404 C48.2449212,37.1458335 48.207758,37.203058 48.1652858,37.2555138 L48.1643205,37.2555138 C48.1237788,37.3070158 48.0759976,37.3532722 48.021942,37.3938062 C47.9664385,37.4362477 47.9041781,37.4734436 47.8356434,37.5049171 C47.768074,37.5359137 47.6922997,37.5592803 47.6063899,37.5754939 C47.5219281,37.5907538 47.4282962,37.5988606 47.3250115,37.5993375 C47.2217267,37.5988606 47.1280948,37.5907538 47.0431503,37.5754939 C46.9577233,37.5592803 46.8814663,37.5359137 46.8148622,37.5049171 C46.7463274,37.4734436 46.6835844,37.4362477 46.6280809,37.3938062 C46.5740253,37.3532722 46.5262441,37.3070158 46.4852198,37.2555138 L46.4847372,37.2555138 C46.4417823,37.203058 46.4051017,37.1458335 46.3742128,37.0838404 L46.3742128,37.0833635 C46.3428413,37.0208935 46.3177441,36.9536547 46.2994038,36.882601 L46.2984385,36.882601 C46.279133,36.8077323 46.2646538,36.7304793 46.2545184,36.650365 C46.2448656,36.5712045 46.2395566,36.4891828 46.2395566,36.4042998 L46.2395566,36.3728263 L46.2395566,36.3418298 C46.2395566,36.2569468 46.2448656,36.1749251 46.2545184,36.0962414 C46.2646538,36.0161271 46.279133,35.9383972 46.2984385,35.8635286 L46.2994038,35.8635286 C46.3177441,35.7924748 46.3428413,35.7252361 46.3742128,35.6632429 L46.3742128,35.6622892 C46.4051017,35.600296 46.4417823,35.5430715 46.4847372,35.4910926 L46.4852198,35.4901389 C46.5262441,35.4395906 46.5740253,35.3933342 46.6280809,35.3523233 C46.6835844,35.3103587 46.7463274,35.2731628 46.8148622,35.2416893 C46.8814663,35.2106927 46.9577233,35.1873261 47.0431503,35.1711125 C47.1280948,35.1558526 47.2217267,35.147269 47.3250115,35.1467921 C47.4282962,35.147269 47.5219281,35.1558526 47.6063899,35.1711125 C47.6922997,35.1873261 47.768074,35.2106927 47.8356434,35.2416893 C47.9041781,35.2731628 47.9664385,35.3103587 48.021942,35.3523233 C48.0759976,35.3933342 48.1237788,35.4395906 48.1643205,35.4901389 L48.1652858,35.4910926 C48.207758,35.5430715 48.2449212,35.600296 48.2758101,35.6622892 L48.2758101,35.6632429 C48.3071816,35.7252361 48.3317962,35.7924748 48.3501365,35.8635286 L48.3506191,35.8635286 C48.3704073,35.9383972 48.3853691,36.0161271 48.3955045,36.0962414 C48.4051573,36.1749251 48.4099837,36.2569468 48.4099837,36.3418298 L48.4099837,36.3728263 L48.4099837,36.4042998 Z M49.1730358,35.5979117 L49.1730358,35.5974348 C49.1305635,35.4782171 49.0769906,35.3675832 49.0132823,35.265056 C48.9490913,35.1625288 48.8737997,35.0690622 48.7883726,34.9841792 C48.7024628,34.8992963 48.6059351,34.8244276 48.4992719,34.7590963 C48.3930913,34.6942419 48.2767753,34.6394018 48.1498413,34.5940991 L48.1493587,34.5940991 C48.0233899,34.5492733 47.8872858,34.5154154 47.7415288,34.4934794 C47.6092858,34.472974 47.4702858,34.4620059 47.3250115,34.4600985 C47.1797372,34.4620059 47.0407372,34.472974 46.9084941,34.4934794 C46.7622545,34.5154154 46.626633,34.5492733 46.5001816,34.5940991 L46.499699,34.5940991 C46.3732476,34.6394018 46.256449,34.6942419 46.1502684,34.7590963 C46.0440878,34.8244276 45.9475601,34.8992963 45.8616503,34.9841792 C45.7757406,35.0690622 45.7009316,35.1625288 45.6367406,35.265056 C45.5730323,35.3675832 45.5194594,35.4782171 45.4774698,35.5974348 L45.4774698,35.5979117 C45.4349976,35.7166524 45.403626,35.8401619 45.3838378,35.9684401 C45.3630844,36.0971951 45.3534316,36.2321495 45.3534316,36.3728263 C45.3534316,36.5135032 45.3630844,36.6489344 45.3838378,36.7776895 C45.403626,36.9059676 45.4349976,37.029954 45.4774698,37.1486948 L45.4774698,37.1491716 C45.5194594,37.2679124 45.5730323,37.3780695 45.6367406,37.4810736 C45.7009316,37.5836007 45.7757406,37.6770674 45.8616503,37.7619503 C45.9475601,37.8468333 46.0440878,37.9221788 46.1502684,37.9870332 C46.256449,38.0518876 46.3732476,38.1067278 46.499699,38.1525073 L46.5001816,38.1525073 C46.626633,38.1968563 46.7622545,38.2307141 46.9084941,38.2526502 C47.0407372,38.2731556 47.1797372,38.2841236 47.3250115,38.2860311 C47.4702858,38.2841236 47.6092858,38.2731556 47.7415288,38.2526502 C47.8872858,38.2307141 48.0233899,38.1968563 48.1493587,38.1525073 L48.1498413,38.1525073 C48.2767753,38.1067278 48.3930913,38.0518876 48.4992719,37.9870332 C48.6059351,37.9221788 48.7024628,37.8468333 48.7883726,37.7619503 C48.8737997,37.6770674 48.9490913,37.5836007 49.0132823,37.4810736 C49.0769906,37.3780695 49.1305635,37.2679124 49.1730358,37.1491716 L49.1730358,37.1486948 C49.2145427,37.029954 49.2459142,36.9059676 49.2661851,36.7776895 C49.2869385,36.6489344 49.2965913,36.5135032 49.2965913,36.3728263 C49.2965913,36.2321495 49.2869385,36.0971951 49.2661851,35.9684401 C49.2459142,35.8401619 49.2145427,35.7166524 49.1730358,35.5979117 L49.1730358,35.5979117 Z" id="Fill-26" fill="#3E3A39" mask="url(#mask-2)"></path>
                    <path d="M56.2215424,34.6370174 L56.2215424,34.6370174 C56.2075458,34.616512 56.1887229,34.5983909 56.1665215,34.5836079 C56.1510771,34.5731168 56.1341847,34.5645331 56.1158444,34.5569032 C56.0975042,34.5483195 56.0753028,34.5416433 56.0502056,34.5363978 C56.0289694,34.531629 56.0091812,34.5287678 55.9898757,34.5263835 C55.9715354,34.5249529 55.9498167,34.5230454 55.9242368,34.5220916 L55.9237542,34.5220916 C55.8947958,34.520661 55.8701812,34.5197073 55.8523236,34.5197073 C55.8310875,34.5197073 55.8045424,34.520661 55.7736535,34.5220916 C55.7461431,34.5230454 55.723459,34.5249529 55.7065667,34.5263835 C55.6882264,34.5287678 55.6684382,34.531629 55.6467194,34.5363978 C55.6230701,34.5411665 55.601834,34.5478426 55.5834937,34.5554726 C55.5641882,34.5631025 55.5468132,34.572163 55.5318514,34.5817005 L55.5318514,34.5821773 C55.5086847,34.5969603 55.4908271,34.6131739 55.4768306,34.6308181 L55.4720042,34.6379712 C55.4613861,34.6527542 55.4526986,34.6689678 55.4459417,34.6880426 L55.445459,34.6899501 C55.4372542,34.7109324 55.4333931,34.7328684 55.4333931,34.7552813 L55.4333931,36.5974324 L55.4338757,36.5974324 L55.4338757,36.8091629 L55.4338757,36.8096398 L55.4343583,36.904537 L55.4261535,36.8911847 L55.4266361,36.8911847 C55.4073306,36.8597112 55.3798201,36.816316 55.3455528,36.7619527 C55.3127333,36.7114044 55.2861882,36.6694398 55.261091,36.6312902 L55.1746986,36.5001508 L55.174216,36.4996739 C55.1413965,36.4491256 55.1095424,36.4009617 55.0839625,36.3637658 L54.0984139,34.8749759 L54.0984139,34.8749759 C54.0766951,34.8415949 54.0588375,34.815367 54.044841,34.7962922 C54.0293965,34.7757868 54.0105736,34.7514664 53.9888549,34.7261922 L53.9878896,34.7238079 C53.9690667,34.7018718 53.9492785,34.6813664 53.9275597,34.6622916 C53.9048757,34.6413093 53.8812264,34.6236651 53.8570944,34.6084052 C53.8334451,34.5940991 53.8073826,34.5812236 53.7784243,34.5697787 L53.7779417,34.5693018 C53.7538097,34.5597644 53.7262993,34.5521345 53.6963757,34.5459352 L53.6963757,34.5454583 C53.6707958,34.5397358 53.6403896,34.5359209 53.6070875,34.5325828 C53.5723375,34.5297216 53.5395181,34.5278141 53.5086292,34.5278141 L53.2518653,34.5278141 C53.2089104,34.5278141 53.1674035,34.5340134 53.1268618,34.546412 L53.1258965,34.546412 C53.0863201,34.5578569 53.0486743,34.575978 53.0124764,34.5988678 L53.0119937,34.5988678 C52.9637299,34.6298644 52.9280146,34.6713521 52.9038826,34.723331 L52.9034,34.723331 C52.8831292,34.7681569 52.8734764,34.8182283 52.8734764,34.8735452 L52.8734764,38.0061081 C52.8734764,38.0275672 52.8773375,38.0509339 52.8855424,38.0738237 C52.8932646,38.0943291 52.9038826,38.1143577 52.9178792,38.1320019 L52.9178792,38.1320019 C52.932841,38.1510767 52.9506986,38.1672903 52.9709694,38.1806427 C52.990275,38.1935182 53.0119937,38.2035325 53.0346778,38.2106855 L53.0346778,38.2102087 C53.0530181,38.216408 53.0703931,38.2211767 53.0872854,38.2240379 L53.0872854,38.2240379 C53.1085215,38.2283298 53.123966,38.2307141 53.1384451,38.2326216 L53.1394104,38.2326216 C53.158716,38.2350059 53.1814,38.2373903 53.2079451,38.2388209 C53.2349729,38.2407284 53.2610354,38.2412053 53.28565,38.2412053 C53.3097819,38.2412053 53.3358444,38.2407284 53.3628722,38.2392978 C53.3903826,38.2373903 53.4140319,38.2350059 53.4333375,38.2326216 C53.4511951,38.2302372 53.4685701,38.227376 53.4844972,38.2240379 C53.5042854,38.2206998 53.5231083,38.2159311 53.5395181,38.2106855 L53.5390354,38.2102087 C53.56365,38.2030556 53.5844035,38.1935182 53.6017785,38.1825502 C53.6230146,38.1687209 53.6413549,38.1525073 53.6567993,38.1324788 L53.6572819,38.1329556 C53.6722437,38.1138808 53.6833444,38.0924216 53.690584,38.0714393 L53.690584,38.0719162 C53.6983062,38.0485495 53.7016847,38.0261366 53.7016847,38.0061081 L53.7016847,35.9574721 L53.7007194,35.9574721 L53.7002368,35.762432 L53.7002368,35.7614783 L53.7002368,35.747649 C53.7378826,35.8063041 53.7697368,35.8539912 53.7967646,35.8940483 L55.0776882,37.8239435 L55.0776882,37.8239435 C55.1018201,37.8616163 55.1245042,37.8949972 55.1452576,37.9231326 C55.1679417,37.954606 55.1891778,37.9822645 55.2094486,38.0051543 L55.2094486,38.0051543 C55.2321326,38.0328128 55.254334,38.0561795 55.2750875,38.076208 C55.2987368,38.0990978 55.323834,38.1196033 55.3494139,38.1372475 L55.3513444,38.1386781 C55.3788549,38.1567992 55.4054,38.172059 55.4309799,38.1835039 L55.4314625,38.1835039 C55.4604208,38.1968563 55.4903444,38.2073474 55.5197854,38.2145005 L55.5231639,38.2149774 C55.549709,38.2206998 55.5786674,38.2254685 55.6100389,38.2283298 L55.6100389,38.2288066 C55.6409278,38.2321447 55.6718167,38.2330985 55.7012576,38.2330985 L55.8740424,38.2330985 C55.8938306,38.2330985 55.9150667,38.2321447 55.9367854,38.2288066 C55.9570562,38.2259454 55.9768444,38.2226073 55.9966326,38.2173617 C56.018834,38.2116393 56.0410354,38.2040094 56.0627542,38.1944719 C56.0844729,38.1844577 56.1052264,38.1725359 56.1240493,38.1587066 C56.1438375,38.1448774 56.1621778,38.1277101 56.1800354,38.1076815 L56.1805181,38.1076815 C56.1954799,38.0905142 56.2094764,38.0709625 56.2215424,38.0495033 L56.2229903,38.0480727 C56.2369868,38.0227985 56.2466396,37.9960938 56.2533965,37.9679584 L56.2533965,37.9674815 C56.2591882,37.9417305 56.262084,37.9150258 56.262084,37.8878442 L56.262084,34.7552813 C56.262084,34.7323916 56.2577403,34.7090249 56.2490528,34.6861351 C56.2422958,34.6684909 56.2326431,34.6527542 56.2215424,34.6370174" id="Fill-27" fill="#3E3A39" mask="url(#mask-2)"></path>
                    <path d="M54.0237497,16.3801705 C53.4774024,16.1221835 52.8224615,16.3506045 52.5608712,16.8908989 L46.9598469,28.393494 C46.6982566,28.9333115 46.9294406,29.5804249 47.4762705,29.8384119 C47.9791802,30.0763703 48.574274,29.9013588 48.869649,29.4502392 L60.7362913,29.4502392 C61.0369753,29.9108962 61.6470309,30.0820928 62.1533191,29.8298282 C62.6953226,29.5603963 62.9125101,28.9075605 62.6398191,28.3720349 L58.5369059,20.3739616 C58.2637323,19.8393896 57.6029997,19.6238441 57.0614788,19.8942298 C56.5194753,20.1641385 56.3018052,20.8164975 56.5749788,21.3520231 L59.9853052,27.999599 L49.5858851,27.999599 L54.5401733,17.8255652 C54.8012809,17.2852708 54.5705795,16.6386343 54.0237497,16.3801705" id="Fill-28" fill="#3E3A39" mask="url(#mask-2)"></path>
                    <path d="M63.4024368,34.9634354 L63.4029194,34.9634354 C63.3932667,34.9367306 63.3792701,34.9105027 63.3618951,34.8852286 C63.3450028,34.8628157 63.3247319,34.8408796 63.3006,34.8203742 C63.2808118,34.8036837 63.2542667,34.7855626 63.2214472,34.7664878 C63.1939368,34.7502742 63.1596694,34.7321531 63.1205757,34.7121246 C63.0776208,34.6911423 63.0322528,34.6711137 62.9839889,34.6534695 C62.9352424,34.6353484 62.8821521,34.6177042 62.8256833,34.6014906 C62.7696972,34.5857539 62.70985,34.570494 62.6461417,34.5561879 C62.588225,34.5437892 62.5211382,34.5304369 62.4458465,34.5170845 L62.4443986,34.5166076 C62.3710375,34.5051627 62.2952632,34.4956253 62.2170757,34.489426 C62.1398535,34.4832267 62.0607007,34.4803655 61.9801,34.4803655 C61.8227597,34.4803655 61.6702458,34.4922872 61.523041,34.515177 C61.3753535,34.5375899 61.2353882,34.5719246 61.1031451,34.6162736 L61.1021799,34.6167504 C60.9689715,34.6630069 60.8449333,34.7183239 60.7310306,34.7822245 L60.7300653,34.7822245 C60.6166451,34.8466021 60.5099819,34.9209939 60.4129715,35.0058768 L60.4124889,35.0054 C60.3154785,35.0898061 60.2290861,35.1832727 60.1537944,35.2857999 C60.0789854,35.3868964 60.0147944,35.4980073 59.9617042,35.616748 C59.9086139,35.7359657 59.8690375,35.8618595 59.8424924,35.9944295 C59.8159472,36.1269996 59.802916,36.265292 59.802916,36.4088301 C59.802916,36.5452151 59.8149819,36.6773082 59.8400792,36.8051095 C59.8642111,36.9333877 59.9008917,37.0545128 59.9496382,37.168008 L59.9506035,37.1689618 C59.99935,37.2834107 60.0601625,37.3902297 60.1315931,37.4889419 C60.202541,37.5876541 60.2850722,37.6787364 60.3796694,37.7617119 L60.3796694,37.7626656 C60.4733014,37.8446874 60.5775514,37.9176486 60.6924194,37.9815492 L60.6919368,37.9820261 C60.8043917,38.0444961 60.9284299,38.0979056 61.0630861,38.1417777 L61.0630861,38.1417777 C61.1977424,38.1856498 61.3386729,38.2190308 61.4868431,38.24049 C61.6345306,38.2619491 61.7913882,38.2729172 61.9554854,38.2729172 C62.0047146,38.2729172 62.0587701,38.2710097 62.1181347,38.2681484 L62.1191,38.2681484 C62.1736382,38.2652872 62.2281764,38.2614723 62.2836799,38.2552729 C62.3367701,38.2500274 62.391791,38.2428743 62.4472944,38.2347675 C62.5061764,38.225707 62.5607146,38.2161696 62.610909,38.2056784 L62.610909,38.2052015 C62.6659299,38.1942335 62.7190201,38.1823117 62.7696972,38.1694362 L62.7701799,38.1694362 C62.8198917,38.1565607 62.8720167,38.1417777 62.9255896,38.1246104 C62.9791625,38.1083968 63.0230826,38.0936138 63.0587979,38.0821689 C63.1027181,38.0659553 63.1413292,38.0516492 63.173666,38.0382968 C63.2161382,38.0211295 63.2528188,38.0011009 63.283225,37.9782111 C63.3199056,37.9510295 63.3483813,37.9200329 63.3681694,37.8847445 L63.3686521,37.8847445 C63.3855444,37.8556554 63.3980931,37.8246588 63.4062979,37.7917547 C63.4140201,37.7598044 63.4178813,37.7269003 63.4178813,37.6935194 L63.4178813,36.5452151 C63.4178813,36.5228021 63.4154681,36.4989586 63.4106417,36.4736845 L63.4106417,36.4736845 C63.3850618,36.3382532 63.2735722,36.2371567 63.12685,36.2152206 L63.1258847,36.2152206 C63.1065792,36.2123594 63.0872736,36.2109288 63.0674854,36.2109288 L62.9159368,36.2109288 C62.7233639,36.2109288 62.5602319,36.3511287 62.5602319,36.5437844 L62.5602319,37.4770202 C62.5394785,37.485127 62.5177597,37.49228 62.4955583,37.4989562 L62.496041,37.4989562 C62.4429507,37.5161235 62.3864819,37.5304297 62.3266347,37.5423514 L62.3266347,37.5428283 C62.2682354,37.5537963 62.2098361,37.56238 62.1509542,37.5681024 C62.0959333,37.5738249 62.0380167,37.5762092 61.9772042,37.5762092 C61.8777806,37.5762092 61.7841486,37.5700099 61.6977563,37.5566575 C61.6108813,37.5433052 61.5269021,37.5232766 61.4472667,37.4965719 L61.4472667,37.4965719 C61.3685965,37.4698671 61.2962007,37.4374399 61.2295965,37.3992903 L61.2300792,37.3992903 C61.1629924,37.3611406 61.1016972,37.3167916 61.047159,37.267674 C60.9906903,37.2166488 60.9409785,37.1603781 60.8980236,37.0988618 C60.8545861,37.0378224 60.8169403,36.9696299 60.7850861,36.8942843 L60.7841208,36.8942843 C60.7532319,36.8222769 60.7291,36.7421626 60.7131729,36.6539415 C60.6967632,36.5666742 60.6880757,36.4736845 60.6880757,36.3744954 C60.6880757,36.2857975 60.6957979,36.2004376 60.7107597,36.1193696 C60.7257215,36.036871 60.7479229,35.9591411 60.775916,35.8866568 L60.7763986,35.8866568 C60.8058396,35.8127418 60.8415549,35.7445494 60.8830618,35.6811256 C60.9245688,35.6186555 60.9713847,35.5609542 61.0249576,35.5094522 C61.0794958,35.4569964 61.1393431,35.4093093 61.2059472,35.3678216 L61.2059472,35.3673447 C61.2715861,35.3263339 61.3439819,35.2900917 61.4236174,35.259572 C61.5018049,35.230006 61.5862667,35.2071162 61.6765201,35.1918564 C61.7682215,35.1765965 61.8652319,35.1689666 61.9685167,35.1689666 C62.0587701,35.1689666 62.1413014,35.1723047 62.2146625,35.1799346 C62.2885063,35.1875645 62.3565583,35.1985325 62.4164056,35.2137924 L62.4178535,35.2142693 C62.483975,35.2304829 62.5443049,35.2471733 62.5988431,35.2633869 C62.6533813,35.2805543 62.7030931,35.2986754 62.7479785,35.3167964 C62.7981729,35.3373019 62.8391972,35.3549461 62.8724993,35.3706828 C62.9053188,35.3854658 62.9362076,35.4016794 62.9656486,35.417893 L62.9656486,35.417893 C63.0003986,35.4379216 63.0322528,35.4531814 63.0602458,35.4641495 C63.1012701,35.4803631 63.138916,35.4889467 63.1712528,35.4889467 C63.1900757,35.4889467 63.2098639,35.4860855 63.2301347,35.4808399 L63.2306174,35.4808399 C63.2475097,35.477025 63.26585,35.4698719 63.2837076,35.4612882 L63.2928778,35.4574733 C63.3145965,35.4450746 63.3343847,35.4293379 63.3517597,35.4093093 C63.3652736,35.3930957 63.3758917,35.3764053 63.3855444,35.3578073 L63.3860271,35.3573304 C63.3937493,35.3415937 63.4005063,35.3249032 63.4062979,35.3067822 L63.4062979,35.3063053 C63.4116069,35.2886611 63.4159507,35.2710169 63.4188465,35.2538495 L63.4188465,35.2519421 C63.4217424,35.2328672 63.4241556,35.2147461 63.4251208,35.1985325 C63.4265688,35.178504 63.427534,35.1594292 63.427534,35.1413081 C63.427534,35.108404 63.4256035,35.0774074 63.4227076,35.0487952 C63.4183639,35.0177986 63.4120896,34.9891864 63.4024368,34.9634354" id="Fill-29" fill="#3E3A39" mask="url(#mask-2)"></path>
                    <path d="M119.150993,5.88505978 C119.150993,5.88505978 119.228215,5.23556206 119.274066,4.74915407 C120.755285,4.2284114 122.262566,3.74248028 123.61492,2.98950164 C124.261656,2.62898749 124.470156,1.9432476 124.221115,1.44825594 C123.982208,0.970908493 123.384219,0.670956901 122.674257,0.89365546 C121.514958,1.25655397 120.411646,1.81163132 119.170299,2.48544944 C118.788531,1.80972384 118.517771,1.36337298 118.096427,0.820217391 C117.686184,0.290891052 116.980083,0.131616279 116.496962,0.382450202 C115.976194,0.652835819 115.684681,1.38149406 116.019149,1.99522649 C116.381611,2.66093782 117.179413,3.68668643 117.958875,4.46684669 C117.898063,4.94276352 117.852694,5.41343478 117.852694,5.41343478 L119.150993,5.88505978 Z" id="Fill-30" fill="#E6233A" mask="url(#mask-2)"></path>
                    <path d="M94.6299451,23.3364723 C91.3229035,27.8233476 91.522716,34.1290072 98.2970354,33.3574306 C101.709775,32.9683042 96.502584,20.9082474 94.6299451,23.3364723" id="Fill-31" fill="#231815" mask="url(#mask-2)"></path>
                    <path d="M131.224977,32.8464161 C132.244793,32.1740286 133.549366,31.892675 134.774303,31.9689743 C139.899446,32.2884775 139.848769,37.8855075 134.325932,37.913166 C133.010258,37.9193653 131.610123,37.5855559 130.484126,36.8931398 C127.441571,35.024284 128.689192,33.6175158 131.224977,32.8464161" id="Fill-32" fill="#231815" mask="url(#mask-2)"></path>
                    <path d="M116.221906,3.76031524 C93.5842115,3.76031524 80.647076,42.9185426 115.057298,42.9185426 C149.46752,42.9185426 138.8596,3.76031524 116.221906,3.76031524" id="Fill-33" fill="#3E3A39" mask="url(#mask-2)"></path>
                    <path d="M108.724545,12.1125603 C101.680913,12.1406957 96.8685208,18.049599 96.332309,24.2536852 C94.924934,40.5359542 117.075646,41.9756264 119.576681,27.6423275 C120.839747,20.4043859 116.929889,12.0796563 108.724545,12.1125603" id="Fill-34" fill="#FFFFFF" mask="url(#mask-2)"></path>
                    <path d="M109.818494,7.14127994 C110.154411,7.14127994 110.268797,7.57904713 110.07381,8.11886462 C109.878824,8.65963586 109.448793,9.09692618 109.112876,9.09692618 C108.776477,9.09692618 108.662092,8.65963586 108.857078,8.11886462 C109.052547,7.57904713 109.482578,7.14127994 109.818494,7.14127994" id="Fill-35" fill="#FFFFFF" mask="url(#mask-2)"></path>
                    <path d="M109.263749,10.0387933 C102.215774,5.44176089 92.6633847,10.5352155 91.6517736,17.4999103 C91.2439438,20.3101086 91.9944472,21.874721 94.7855479,22.0177821 C98.3619021,22.2009004 100.712836,23.6596475 104.764107,23.4297959 C107.617468,23.2676599 110.927888,21.8256033 111.948187,18.1575148 C112.774947,15.1861343 111.640263,11.5886226 109.263749,10.0387933" id="Fill-36" fill="#E6233A" mask="url(#mask-2)"></path>
                </g>
                <g transform="translate(91.218750, 8.317481)">
                    <mask id="mask-4" fill="white">
                        <use xlink:href="#path-3"></use>
                    </mask>
                    <g id="Clip-38"></g>
                    <path d="M0.587275,8.58772377 C1.10611181,6.63589251 2.4724625,6.03885054 3.58494514,6.22339946 C7.44316042,6.86192916 8.04452847,14.7164644 2.97488958,13.8542824 C1.00524028,15.5810308 -0.678686806,18.1680537 -0.678686806,18.1680537 L-3.88871806,13.8304389 C-3.88871806,13.8304389 -3.48571458,11.4637302 0.587275,8.58772377" id="Fill-37" fill="#231815" mask="url(#mask-4)"></path>
                </g>
                <g transform="translate(111.006944, 6.886869)">
                    <path d="M1.21316111,0.465091873 C1.54907778,0.465091873 1.66346319,0.902859062 1.46847708,1.44267655 C1.27349097,1.98344779 0.842977083,2.42073811 0.507060417,2.42073811 C0.17114375,2.42073811 0.0567583333,1.98344779 0.251744444,1.44267655 C0.446247917,0.902859062 0.877244444,0.465091873 1.21316111,0.465091873" id="Fill-39" fill="#FFFFFF"></path>
                    <path d="M13.6067486,12.8171366 C13.9325299,14.8981998 14.0874569,17.9258511 14.1183458,20.6468746 C12.0526514,24.2033754 14.5474118,26.7217289 17.613134,26.7450955 C23.4048007,26.7899214 24.239766,22.0255074 23.4004569,17.5119274 C22.9892486,15.3006786 22.0427938,13.3302493 21.3304188,12.1113681 C18.5924083,7.42563787 13.0184118,9.0603502 13.6067486,12.8171366" id="Fill-41" fill="#231815"></path>
                </g>
            </g>
        </g>
    </g>
</svg>