<?xml version="1.0" encoding="UTF-8"?>
<svg width="28px" height="28px" viewBox="0 0 28 28" version="1.1" xmlns="http://www.w3.org/2000/svg" xmlns:xlink="http://www.w3.org/1999/xlink">
    <!-- Generator: Sketch 54 (76480) - https://sketchapp.com -->
    <title>备考</title>
    <desc>Created with Sketch.</desc>
    <g id="备考" stroke="none" stroke-width="1" fill="none" fill-rule="evenodd">
        <g id="计时沙漏-2复制-2" transform="translate(8.000000, 7.000000)" fill="#3E3A39" fill-rule="nonzero">
            <g id="计时沙漏">
                <path d="M11.5,12 C11.1666667,12 10.9429662,11.8344861 10.8288987,11.5034582 C10.8288987,9.2922854 8.88987273,7.49978595 6.49799091,7.49978595 C4.10609221,7.49978595 2.16708312,9.29226979 2.16708312,11.5034582 L2.16708312,12.9842899 L9.98831688,12.9842899 L9.98831688,12.9914314 L12.5343264,12.9914314 C12.7837273,13.031631 12.9735442,13.2367202 12.9735442,13.4837168 C12.9735442,13.7595652 12.7367753,13.9831594 12.4446805,13.9831594 L0.528863636,13.9831594 C0.236785714,13.9831594 -1.5720758e-13,13.7595652 -1.5720758e-13,13.4837168 C-1.5720758e-13,13.2078685 0.236785714,12.9842742 0.528863636,12.9842742 L1.08634416,12.9842742 L1.08634416,11.4725396 C1.08634416,9.50472018 2.31908182,7.80332219 4.10946883,6.99158751 C2.3190987,6.17983724 1.08636104,4.47842363 1.08636104,2.51061984 L1.08636104,0.998885173 L0.528880519,0.998885173 C0.236802597,0.998885173 1.68831167e-05,0.775275362 1.68831167e-05,0.499442586 C1.68831167e-05,0.22360981 0.236802597,8.33111358e-13 0.528880519,8.33111358e-13 L12.4446974,8.33111358e-13 C12.7367922,8.33111358e-13 12.973561,0.22360981 12.973561,0.499442586 C12.973561,0.775275362 12.7367922,0.998885173 12.4446974,0.998885173 L11.8781,0.998885173 L11.8781,2.51061984 C11.8781,4.47842363 10.6453623,6.17983724 8.85497532,6.99158751 C10.5400179,7.75556778 11.731124,9.3350003 11.8654379,11.158742 C12,12 12,12 11.5,12 Z M2.16708312,2.47970123 C2.16708312,4.69088963 4.10609221,6.48338907 6.49799091,6.48338907 C8.88987273,6.48338907 10.8288987,4.69088963 10.8288987,2.47970123 L10.8288987,0.998885173 L2.16708312,0.998885173 L2.16708312,2.47970123 Z" id="形状"></path>
                <path d="M7.04264026,5.01003344 C7.04264026,4.73393534 6.80051948,4.51010702 6.50185714,4.51010702 C5.29143896,4.51010702 4.34328312,3.63356968 4.34328312,2.51459978 C4.34328312,2.23850167 4.10116234,2.01465775 3.8025,2.01465775 C3.50383766,2.01465775 3.2617,2.23848606 3.2617,2.51459978 C3.2617,4.1942408 4.68494675,5.50997547 6.50185714,5.50997547 C6.80051948,5.50997547 7.04264026,5.28613155 7.04264026,5.01003344 Z" id="路径"></path>
            </g>
        </g>
    </g>
</svg>