<?xml version="1.0" encoding="UTF-8"?>
<svg width="28px" height="28px" viewBox="0 0 28 28" version="1.1" xmlns="http://www.w3.org/2000/svg" xmlns:xlink="http://www.w3.org/1999/xlink">
    <!-- Generator: Sketch 54 (76480) - https://sketchapp.com -->
    <title>老师复制</title>
    <desc>Created with Sketch.</desc>
    <g id="老师复制" stroke="none" stroke-width="1" fill="none" fill-rule="evenodd">
        <g id="老师-3" transform="translate(7.000000, 7.000000)">
            <g id="老师-2">
                <g id="老师">
                    <path d="M6.25333333,10.5897507 C6.23020144,10.5599982 6.21965524,10.5230865 6.22377778,10.4863063 L6.50222222,7.86325069 C6.51058225,7.78803033 6.57738057,7.73094966 6.657,7.73098958 L7.343,7.73098958 C7.42288794,7.73098862 7.48978899,7.78847646 7.49777778,7.86398958 L7.77622222,10.4870451 C7.78012277,10.5239202 7.76929624,10.5608414 7.74588888,10.5904896 L7.12444445,11.3774063 C7.0950671,11.4146176 7.04896225,11.4365174 7,11.4365174 C6.95103775,11.4365174 6.9049329,11.4146176 6.87555555,11.3774063 L6.25333333,10.5897507 Z" id="形状" fill="#666666" fill-rule="nonzero"></path>
                    <path d="M3.9375,6.725 C2.09424965,6.725 0.6,8.21924965 0.6,10.0625 L0.6,12 C0.6,12.7731986 1.22680135,13.4 2,13.4 L12,13.4 C12.7731986,13.4 13.4,12.7731986 13.4,12 L13.4,10.0625 C13.4,8.21924965 11.9057504,6.725 10.0625,6.725 L3.9375,6.725 Z" id="矩形" stroke="#666666" stroke-width="1.2"></path>
                    <circle id="椭圆形" stroke="#666666" stroke-width="1.2" cx="7" cy="2.625" r="2.625"></circle>
                </g>
            </g>
        </g>
    </g>
</svg>