<?xml version="1.0" encoding="UTF-8"?>
<svg width="28px" height="28px" viewBox="0 0 28 28" version="1.1" xmlns="http://www.w3.org/2000/svg" xmlns:xlink="http://www.w3.org/1999/xlink">
    <!-- Generator: Sketch 54 (76480) - https://sketchapp.com -->
    <title>犀半球</title>
    <desc>Created with Sketch.</desc>
    <g id="犀半球" stroke="none" stroke-width="1" fill="none" fill-rule="evenodd">
        <g id="编组-7" transform="translate(7.000000, 7.000000)">
            <g id="编组-4" transform="translate(1.000000, 3.000000)">
                <rect id="矩形" stroke="#666666" fill="#D8D8D8" x="8.5" y="2.5" width="1" height="4" rx="0.5"></rect>
                <path d="M3.92874703,1.69785725 L3.92874703,1.69785725 C4.35073668,1.72130112 4.6876561,2.05822054 4.71109997,2.48021019 L4.9581588,6.92726902 C4.97850613,7.29352101 4.698095,7.60692168 4.33184301,7.62726902 C4.30730053,7.62863249 4.28270128,7.62863249 4.2581588,7.62726902 L4.2581588,7.62726902 C3.83616915,7.60382515 3.49924972,7.26690572 3.47580585,6.84491607 L3.22874703,2.39785725 C3.2083997,2.03160526 3.48881083,1.71820458 3.85506282,1.69785725 C3.8796053,1.69649378 3.90420455,1.69649378 3.92874703,1.69785725 Z" id="矩形复制-2" fill="#666666" transform="translate(4.093453, 4.662563) rotate(-45.000000) translate(-4.093453, -4.662563) "></path>
                <path d="M3.70588235,0.794117647 L3.70588235,0.794117647 C4.127872,0.817561516 4.46479142,1.15448094 4.48823529,1.57647059 L4.81764706,7.50588235 C4.83799439,7.87213434 4.55758326,8.18553502 4.19133127,8.20588235 C4.16678879,8.20724582 4.14218954,8.20724582 4.11764706,8.20588235 L4.11764706,8.20588235 C3.69565741,8.18243848 3.35873799,7.84551906 3.33529412,7.42352941 L3.00588235,1.49411765 C2.98553502,1.12786566 3.26594615,0.81446498 3.63219814,0.794117647 C3.65674062,0.792754176 3.68133987,0.792754176 3.70588235,0.794117647 Z" id="矩形复制-3" fill="#666666" transform="translate(3.911765, 4.500000) scale(-1, 1) rotate(-45.000000) translate(-3.911765, -4.500000) "></path>
                <circle id="椭圆形" fill="#666666" cx="8.75" cy="0.75" r="1"></circle>
                <circle id="椭圆形复制" fill="#666666" cx="12" cy="6" r="1"></circle>
            </g>
            <circle id="椭圆形" stroke="#666666" cx="7.5" cy="7.5" r="7.5"></circle>
        </g>
    </g>
</svg>