<?xml version="1.0" encoding="UTF-8"?>
<svg width="28px" height="28px" viewBox="0 0 28 28" version="1.1" xmlns="http://www.w3.org/2000/svg" xmlns:xlink="http://www.w3.org/1999/xlink">
    <!-- Generator: Sketch 54 (76480) - https://sketchapp.com -->
    <title>课程@3x</title>
    <desc>Created with Sketch.</desc>
    <g id="课程" stroke="none" stroke-width="1" fill="none" fill-rule="evenodd">
        <g id="编组-4复制-2" transform="translate(8.000000, 7.000000)">
            <g id="课程-3复制-13">
                <g id="课程-2">
                    <g id="课程">
                        <path d="M11.8651893,11.2186897 C11.8651893,12.5400932 10.7689607,13.6109704 9.416275,13.6109704 L2.710675,13.6109704 C1.35798929,13.6109704 0.261760714,12.5400932 0.261760714,11.2186897 L0.261760714,2.53377741 C0.261760714,1.2123739 1.35798929,0.141496711 2.710675,0.141496711 L9.41878929,0.141496711 C10.771475,0.141496711 11.8677036,1.2123739 11.8677036,2.53377741 L11.8677036,11.2186897 L11.8651893,11.2186897 Z" id="形状" stroke="#666666" fill-rule="nonzero"></path>
                        <path d="M4.98358929,8.12149671 L8.11890357,6.38254934 C8.53878929,6.14921601 8.53878929,5.55728618 8.11890357,5.32395285 L4.98358929,3.5800932 C4.56873214,3.34921601 4.05330357,3.64149671 4.05330357,4.11061952 L4.05330357,7.59097039 C4.05330357,8.05763706 4.56873214,8.3523739 4.98358929,8.12149671 L4.98358929,8.12149671 Z" id="路径" fill="#666666" fill-rule="nonzero"></path>
                        <path d="M3.70190964,10.8085143 C3.40381928,10.8085143 3.15789474,11.075647 3.15789474,11.4039552 L3.15789474,11.4304646 C3.15789474,11.7567336 3.40195622,12.0259056 3.70190964,12.0259056 L8.92966931,12.0259056 C9.22775966,12.0259056 9.47368421,11.7587728 9.47368421,11.4304646 L9.47368421,11.4039552 C9.47368421,11.075647 9.22775966,10.8085143 8.92966931,10.8085143 L3.70190964,10.8085143 Z" id="路径" fill="#666666"></path>
                    </g>
                </g>
            </g>
        </g>
    </g>
</svg>